<?xml version="1.0" encoding="UTF-8" standalone="no"?>
<!DOCTYPE svg PUBLIC "-//W3C//DTD SVG 1.1//EN"
 "http://www.w3.org/Graphics/SVG/1.1/DTD/svg11.dtd">
<!-- Generated by graphviz version 2.38.0 (20140413.2041)
 -->
<!-- Title: pastafarianism Pages: 1 -->
<svg width="775pt" height="404pt"
 viewBox="0.00 0.00 775.15 404.00" xmlns="http://www.w3.org/2000/svg" xmlns:xlink="http://www.w3.org/1999/xlink">
<g id="graph0" class="graph" transform="scale(1 1) rotate(0) translate(4 400)">
<title>pastafarianism</title>
<polygon fill="white" stroke="none" points="-4,4 -4,-400 771.147,-400 771.147,4 -4,4"/>
<!-- Level -->
<g id="node1" class="node"><title>Level</title>
<polygon fill="orange" stroke="black" points="369.147,-396 315.147,-396 315.147,-360 369.147,-360 369.147,-396"/>
<text text-anchor="middle" x="342.147" y="-375.8" font-family="Times New Roman,serif" font-size="9.00">Level</text>
</g>
<!-- Horizontal or Vertical -->
<g id="node2" class="node"><title>Horizontal or Vertical</title>
<polygon fill="cyan" stroke="black" points="284.382,-298.544 284.382,-313.456 249.683,-324 200.611,-324 165.912,-313.456 165.912,-298.544 200.611,-288 249.683,-288 284.382,-298.544"/>
<text text-anchor="middle" x="225.147" y="-303.8" font-family="Times New Roman,serif" font-size="9.00">Horizontal or Vertical</text>
</g>
<!-- Level&#45;&gt;Horizontal or Vertical -->
<g id="edge1" class="edge"><title>Level&#45;&gt;Horizontal or Vertical</title>
<path fill="none" stroke="black" d="M315.01,-360.765C299.029,-351.203 278.615,-338.99 261.283,-328.62"/>
<polygon fill="black" stroke="black" points="262.919,-325.521 252.541,-323.39 259.325,-331.527 262.919,-325.521"/>
</g>
<!-- Horizontal* -->
<g id="node17" class="node"><title>Horizontal*</title>
<ellipse fill="gray" stroke="black" cx="342.147" cy="-306" rx="34.7826" ry="18"/>
<text text-anchor="middle" x="342.147" y="-303.8" font-family="Times New Roman,serif" font-size="9.00">Horizontal*</text>
</g>
<!-- Level&#45;&gt;Horizontal* -->
<g id="edge16" class="edge"><title>Level&#45;&gt;Horizontal*</title>
<path fill="none" stroke="black" d="M342.147,-359.697C342.147,-351.983 342.147,-342.712 342.147,-334.112"/>
<polygon fill="black" stroke="black" points="345.647,-334.104 342.147,-324.104 338.647,-334.104 345.647,-334.104"/>
</g>
<!-- Vertical* -->
<g id="node18" class="node"><title>Vertical*</title>
<polygon fill="cyan" stroke="black" points="510.889,-298.544 510.889,-313.456 492.881,-324 467.413,-324 449.404,-313.456 449.404,-298.544 467.413,-288 492.881,-288 510.889,-298.544"/>
<text text-anchor="middle" x="480.147" y="-303.8" font-family="Times New Roman,serif" font-size="9.00">Vertical*</text>
</g>
<!-- Level&#45;&gt;Vertical* -->
<g id="edge17" class="edge"><title>Level&#45;&gt;Vertical*</title>
<path fill="none" stroke="black" d="M369.411,-363.17C392.156,-351.633 424.593,-335.18 448.484,-323.061"/>
<polygon fill="black" stroke="black" points="450.169,-326.131 457.504,-318.486 447.002,-319.888 450.169,-326.131"/>
</g>
<!-- Check -->
<g id="node3" class="node"><title>Check</title>
<polygon fill="orange" stroke="black" points="161.147,-252 107.147,-252 107.147,-216 161.147,-216 161.147,-252"/>
<text text-anchor="middle" x="134.147" y="-231.8" font-family="Times New Roman,serif" font-size="9.00">Check</text>
</g>
<!-- Horizontal or Vertical&#45;&gt;Check -->
<g id="edge2" class="edge"><title>Horizontal or Vertical&#45;&gt;Check</title>
<path fill="none" stroke="black" d="M202.652,-287.697C191.192,-278.881 177.088,-268.032 164.663,-258.474"/>
<polygon fill="black" stroke="black" points="166.442,-255.427 156.382,-252.104 162.174,-260.976 166.442,-255.427"/>
</g>
<!-- Vertical -->
<g id="node6" class="node"><title>Vertical</title>
<polygon fill="cyan" stroke="black" points="252.639,-226.544 252.639,-241.456 236.535,-252 213.759,-252 197.654,-241.456 197.654,-226.544 213.759,-216 236.535,-216 252.639,-226.544"/>
<text text-anchor="middle" x="225.147" y="-231.8" font-family="Times New Roman,serif" font-size="9.00">Vertical</text>
</g>
<!-- Horizontal or Vertical&#45;&gt;Vertical -->
<g id="edge5" class="edge"><title>Horizontal or Vertical&#45;&gt;Vertical</title>
<path fill="none" stroke="black" d="M225.147,-287.697C225.147,-279.983 225.147,-270.712 225.147,-262.112"/>
<polygon fill="black" stroke="black" points="228.647,-262.104 225.147,-252.104 221.647,-262.104 228.647,-262.104"/>
</g>
<!-- Do Horizontal? -->
<g id="node4" class="node"><title>Do Horizontal?</title>
<ellipse fill="gray" stroke="black" cx="42.1466" cy="-162" rx="42.2937" ry="18"/>
<text text-anchor="middle" x="42.1466" y="-159.8" font-family="Times New Roman,serif" font-size="9.00">Do Horizontal?</text>
</g>
<!-- Check&#45;&gt;Do Horizontal? -->
<g id="edge3" class="edge"><title>Check&#45;&gt;Do Horizontal?</title>
<path fill="none" stroke="black" d="M111.405,-215.697C98.9213,-206.198 83.3362,-194.34 70.1132,-184.279"/>
<polygon fill="black" stroke="black" points="71.8988,-181.24 61.8211,-177.97 67.6601,-186.81 71.8988,-181.24"/>
</g>
<!-- Horizontal -->
<g id="node5" class="node"><title>Horizontal</title>
<ellipse fill="gray" stroke="black" cx="134.147" cy="-162" rx="32.1641" ry="18"/>
<text text-anchor="middle" x="134.147" y="-159.8" font-family="Times New Roman,serif" font-size="9.00">Horizontal</text>
</g>
<!-- Check&#45;&gt;Horizontal -->
<g id="edge4" class="edge"><title>Check&#45;&gt;Horizontal</title>
<path fill="none" stroke="black" d="M134.147,-215.697C134.147,-207.983 134.147,-198.712 134.147,-190.112"/>
<polygon fill="black" stroke="black" points="137.647,-190.104 134.147,-180.104 130.647,-190.104 137.647,-190.104"/>
</g>
<!-- Check* -->
<g id="node7" class="node"><title>Check*</title>
<polygon fill="orange" stroke="black" points="238.147,-180 184.147,-180 184.147,-144 238.147,-144 238.147,-180"/>
<text text-anchor="middle" x="211.147" y="-159.8" font-family="Times New Roman,serif" font-size="9.00">Check*</text>
</g>
<!-- Vertical&#45;&gt;Check* -->
<g id="edge6" class="edge"><title>Vertical&#45;&gt;Check*</title>
<path fill="none" stroke="black" d="M221.686,-215.697C220.143,-207.983 218.289,-198.712 216.569,-190.112"/>
<polygon fill="black" stroke="black" points="219.961,-189.224 214.567,-180.104 213.097,-190.597 219.961,-189.224"/>
</g>
<!-- Downward -->
<g id="node13" class="node"><title>Downward</title>
<polygon fill="orange" stroke="black" points="348.647,-180 291.647,-180 291.647,-144 348.647,-144 348.647,-180"/>
<text text-anchor="middle" x="320.147" y="-159.8" font-family="Times New Roman,serif" font-size="9.00">Downward</text>
</g>
<!-- Vertical&#45;&gt;Downward -->
<g id="edge12" class="edge"><title>Vertical&#45;&gt;Downward</title>
<path fill="none" stroke="black" d="M243.015,-219.834C255.895,-210.343 273.613,-197.288 288.821,-186.082"/>
<polygon fill="black" stroke="black" points="290.99,-188.832 296.964,-180.082 286.837,-183.196 290.99,-188.832"/>
</g>
<!-- Do Upward? -->
<g id="node8" class="node"><title>Do Upward?</title>
<ellipse fill="gray" stroke="black" cx="111.147" cy="-90" rx="36.9009" ry="18"/>
<text text-anchor="middle" x="111.147" y="-87.8" font-family="Times New Roman,serif" font-size="9.00">Do Upward?</text>
</g>
<!-- Check*&#45;&gt;Do Upward? -->
<g id="edge7" class="edge"><title>Check*&#45;&gt;Do Upward?</title>
<path fill="none" stroke="black" d="M186.684,-143.876C172.473,-133.929 154.5,-121.348 139.652,-110.954"/>
<polygon fill="black" stroke="black" points="141.521,-107.99 131.322,-105.123 137.507,-113.725 141.521,-107.99"/>
</g>
<!-- Upward -->
<g id="node9" class="node"><title>Upward</title>
<polygon fill="orange" stroke="black" points="220.147,-108 166.147,-108 166.147,-72 220.147,-72 220.147,-108"/>
<text text-anchor="middle" x="193.147" y="-87.8" font-family="Times New Roman,serif" font-size="9.00">Upward</text>
</g>
<!-- Check*&#45;&gt;Upward -->
<g id="edge8" class="edge"><title>Check*&#45;&gt;Upward</title>
<path fill="none" stroke="black" d="M206.697,-143.697C204.692,-135.898 202.277,-126.509 200.045,-117.829"/>
<polygon fill="black" stroke="black" points="203.425,-116.918 197.545,-108.104 196.646,-118.661 203.425,-116.918"/>
</g>
<!-- UL -->
<g id="node10" class="node"><title>UL</title>
<ellipse fill="gray" stroke="black" cx="121.147" cy="-18" rx="27" ry="18"/>
<text text-anchor="middle" x="121.147" y="-15.8" font-family="Times New Roman,serif" font-size="9.00">UL</text>
</g>
<!-- Upward&#45;&gt;UL -->
<g id="edge9" class="edge"><title>Upward&#45;&gt;UL</title>
<path fill="none" stroke="black" d="M175.349,-71.6966C165.659,-62.276 153.582,-50.5341 143.288,-40.5265"/>
<polygon fill="black" stroke="black" points="145.443,-37.7403 135.834,-33.279 140.564,-42.7593 145.443,-37.7403"/>
</g>
<!-- UD -->
<g id="node11" class="node"><title>UD</title>
<ellipse fill="gray" stroke="black" cx="193.147" cy="-18" rx="27" ry="18"/>
<text text-anchor="middle" x="193.147" y="-15.8" font-family="Times New Roman,serif" font-size="9.00">UD</text>
</g>
<!-- Upward&#45;&gt;UD -->
<g id="edge10" class="edge"><title>Upward&#45;&gt;UD</title>
<path fill="none" stroke="black" d="M193.147,-71.6966C193.147,-63.9827 193.147,-54.7125 193.147,-46.1124"/>
<polygon fill="black" stroke="black" points="196.647,-46.1043 193.147,-36.1043 189.647,-46.1044 196.647,-46.1043"/>
</g>
<!-- DR -->
<g id="node12" class="node"><title>DR</title>
<ellipse fill="gray" stroke="black" cx="265.147" cy="-18" rx="27" ry="18"/>
<text text-anchor="middle" x="265.147" y="-15.8" font-family="Times New Roman,serif" font-size="9.00">DR</text>
</g>
<!-- Upward&#45;&gt;DR -->
<g id="edge11" class="edge"><title>Upward&#45;&gt;DR</title>
<path fill="none" stroke="black" d="M210.944,-71.6966C220.634,-62.276 232.712,-50.5341 243.005,-40.5265"/>
<polygon fill="black" stroke="black" points="245.729,-42.7593 250.46,-33.279 240.85,-37.7403 245.729,-42.7593"/>
</g>
<!-- DL -->
<g id="node14" class="node"><title>DL</title>
<ellipse fill="gray" stroke="black" cx="265.147" cy="-90" rx="27" ry="18"/>
<text text-anchor="middle" x="265.147" y="-87.8" font-family="Times New Roman,serif" font-size="9.00">DL</text>
</g>
<!-- Downward&#45;&gt;DL -->
<g id="edge13" class="edge"><title>Downward&#45;&gt;DL</title>
<path fill="none" stroke="black" d="M306.551,-143.697C299.564,-134.804 290.951,-123.842 283.394,-114.224"/>
<polygon fill="black" stroke="black" points="286.022,-111.903 277.091,-106.202 280.517,-116.228 286.022,-111.903"/>
</g>
<!-- UD* -->
<g id="node15" class="node"><title>UD*</title>
<ellipse fill="gray" stroke="black" cx="337.147" cy="-90" rx="27" ry="18"/>
<text text-anchor="middle" x="337.147" y="-87.8" font-family="Times New Roman,serif" font-size="9.00">UD*</text>
</g>
<!-- Downward&#45;&gt;UD* -->
<g id="edge14" class="edge"><title>Downward&#45;&gt;UD*</title>
<path fill="none" stroke="black" d="M324.349,-143.697C326.243,-135.898 328.523,-126.509 330.631,-117.829"/>
<polygon fill="black" stroke="black" points="334.034,-118.648 332.993,-108.104 327.231,-116.996 334.034,-118.648"/>
</g>
<!-- UR -->
<g id="node16" class="node"><title>UR</title>
<ellipse fill="gray" stroke="black" cx="409.147" cy="-90" rx="27" ry="18"/>
<text text-anchor="middle" x="409.147" y="-87.8" font-family="Times New Roman,serif" font-size="9.00">UR</text>
</g>
<!-- Downward&#45;&gt;UR -->
<g id="edge15" class="edge"><title>Downward&#45;&gt;UR</title>
<path fill="none" stroke="black" d="M342.147,-143.697C354.899,-133.667 370.996,-121.006 384.216,-110.608"/>
<polygon fill="black" stroke="black" points="386.728,-113.086 392.424,-104.152 382.4,-107.583 386.728,-113.086"/>
</g>
<!-- Check** -->
<g id="node19" class="node"><title>Check**</title>
<polygon fill="orange" stroke="black" points="507.147,-252 453.147,-252 453.147,-216 507.147,-216 507.147,-252"/>
<text text-anchor="middle" x="480.147" y="-231.8" font-family="Times New Roman,serif" font-size="9.00">Check**</text>
</g>
<!-- Vertical*&#45;&gt;Check** -->
<g id="edge18" class="edge"><title>Vertical*&#45;&gt;Check**</title>
<path fill="none" stroke="black" d="M480.147,-287.697C480.147,-279.983 480.147,-270.712 480.147,-262.112"/>
<polygon fill="black" stroke="black" points="483.647,-262.104 480.147,-252.104 476.647,-262.104 483.647,-262.104"/>
</g>
<!-- Downward* -->
<g id="node25" class="node"><title>Downward*</title>
<polygon fill="orange" stroke="black" points="663.147,-252 601.147,-252 601.147,-216 663.147,-216 663.147,-252"/>
<text text-anchor="middle" x="632.147" y="-231.8" font-family="Times New Roman,serif" font-size="9.00">Downward*</text>
</g>
<!-- Vertical*&#45;&gt;Downward* -->
<g id="edge24" class="edge"><title>Vertical*&#45;&gt;Downward*</title>
<path fill="none" stroke="black" d="M503.563,-294.216C527.056,-283.397 563.698,-266.523 591.865,-253.551"/>
<polygon fill="black" stroke="black" points="593.443,-256.677 601.062,-249.315 590.515,-250.319 593.443,-256.677"/>
</g>
<!-- Do Upward?* -->
<g id="node20" class="node"><title>Do Upward?*</title>
<ellipse fill="gray" stroke="black" cx="440.147" cy="-162" rx="39.0211" ry="18"/>
<text text-anchor="middle" x="440.147" y="-159.8" font-family="Times New Roman,serif" font-size="9.00">Do Upward?*</text>
</g>
<!-- Check**&#45;&gt;Do Upward?* -->
<g id="edge19" class="edge"><title>Check**&#45;&gt;Do Upward?*</title>
<path fill="none" stroke="black" d="M470.259,-215.697C465.589,-207.523 459.92,-197.603 454.766,-188.584"/>
<polygon fill="black" stroke="black" points="457.645,-186.568 449.645,-179.622 451.568,-190.041 457.645,-186.568"/>
</g>
<!-- Upward* -->
<g id="node21" class="node"><title>Upward*</title>
<polygon fill="orange" stroke="black" points="551.147,-180 497.147,-180 497.147,-144 551.147,-144 551.147,-180"/>
<text text-anchor="middle" x="524.147" y="-159.8" font-family="Times New Roman,serif" font-size="9.00">Upward*</text>
</g>
<!-- Check**&#45;&gt;Upward* -->
<g id="edge20" class="edge"><title>Check**&#45;&gt;Upward*</title>
<path fill="none" stroke="black" d="M491.023,-215.697C496.138,-207.559 502.342,-197.689 507.991,-188.701"/>
<polygon fill="black" stroke="black" points="511.037,-190.433 513.395,-180.104 505.11,-186.708 511.037,-190.433"/>
</g>
<!-- UL* -->
<g id="node22" class="node"><title>UL*</title>
<ellipse fill="gray" stroke="black" cx="481.147" cy="-90" rx="27" ry="18"/>
<text text-anchor="middle" x="481.147" y="-87.8" font-family="Times New Roman,serif" font-size="9.00">UL*</text>
</g>
<!-- Upward*&#45;&gt;UL* -->
<g id="edge21" class="edge"><title>Upward*&#45;&gt;UL*</title>
<path fill="none" stroke="black" d="M513.517,-143.697C508.369,-135.316 502.093,-125.098 496.442,-115.899"/>
<polygon fill="black" stroke="black" points="499.28,-113.833 491.064,-107.145 493.316,-117.497 499.28,-113.833"/>
</g>
<!-- UD** -->
<g id="node23" class="node"><title>UD**</title>
<ellipse fill="gray" stroke="black" cx="553.147" cy="-90" rx="27" ry="18"/>
<text text-anchor="middle" x="553.147" y="-87.8" font-family="Times New Roman,serif" font-size="9.00">UD**</text>
</g>
<!-- Upward*&#45;&gt;UD** -->
<g id="edge22" class="edge"><title>Upward*&#45;&gt;UD**</title>
<path fill="none" stroke="black" d="M531.315,-143.697C534.665,-135.609 538.725,-125.812 542.429,-116.869"/>
<polygon fill="black" stroke="black" points="545.666,-118.2 546.26,-107.622 539.199,-115.521 545.666,-118.2"/>
</g>
<!-- DR* -->
<g id="node24" class="node"><title>DR*</title>
<ellipse fill="gray" stroke="black" cx="625.147" cy="-90" rx="27" ry="18"/>
<text text-anchor="middle" x="625.147" y="-87.8" font-family="Times New Roman,serif" font-size="9.00">DR*</text>
</g>
<!-- Upward*&#45;&gt;DR* -->
<g id="edge23" class="edge"><title>Upward*&#45;&gt;DR*</title>
<path fill="none" stroke="black" d="M548.854,-143.876C563.89,-133.455 583.097,-120.144 598.477,-109.484"/>
<polygon fill="black" stroke="black" points="600.804,-112.129 607.03,-103.556 596.817,-106.376 600.804,-112.129"/>
</g>
<!-- DL* -->
<g id="node26" class="node"><title>DL*</title>
<ellipse fill="gray" stroke="black" cx="596.147" cy="-162" rx="27" ry="18"/>
<text text-anchor="middle" x="596.147" y="-159.8" font-family="Times New Roman,serif" font-size="9.00">DL*</text>
</g>
<!-- Downward*&#45;&gt;DL* -->
<g id="edge25" class="edge"><title>Downward*&#45;&gt;DL*</title>
<path fill="none" stroke="black" d="M623.248,-215.697C618.983,-207.403 613.792,-197.311 609.1,-188.187"/>
<polygon fill="black" stroke="black" points="612.136,-186.437 604.449,-179.145 605.911,-189.638 612.136,-186.437"/>
</g>
<!-- UD*** -->
<g id="node27" class="node"><title>UD***</title>
<ellipse fill="gray" stroke="black" cx="668.147" cy="-162" rx="27" ry="18"/>
<text text-anchor="middle" x="668.147" y="-159.8" font-family="Times New Roman,serif" font-size="9.00">UD***</text>
</g>
<!-- Downward*&#45;&gt;UD*** -->
<g id="edge26" class="edge"><title>Downward*&#45;&gt;UD***</title>
<path fill="none" stroke="black" d="M641.045,-215.697C645.311,-207.403 650.501,-197.311 655.193,-188.187"/>
<polygon fill="black" stroke="black" points="658.383,-189.638 659.844,-179.145 652.158,-186.437 658.383,-189.638"/>
</g>
<!-- UR* -->
<g id="node28" class="node"><title>UR*</title>
<ellipse fill="gray" stroke="black" cx="740.147" cy="-162" rx="27" ry="18"/>
<text text-anchor="middle" x="740.147" y="-159.8" font-family="Times New Roman,serif" font-size="9.00">UR*</text>
</g>
<!-- Downward*&#45;&gt;UR* -->
<g id="edge27" class="edge"><title>Downward*&#45;&gt;UR*</title>
<path fill="none" stroke="black" d="M658.566,-215.876C675.006,-205.221 696.107,-191.544 712.73,-180.77"/>
<polygon fill="black" stroke="black" points="714.958,-183.497 721.446,-175.121 711.151,-177.623 714.958,-183.497"/>
</g>
</g>
</svg>
