<?xml version="1.0" encoding="UTF-8" standalone="no"?>
<!DOCTYPE svg PUBLIC "-//W3C//DTD SVG 1.1//EN"
 "http://www.w3.org/Graphics/SVG/1.1/DTD/svg11.dtd">
<!-- Generated by graphviz version 2.38.0 (20140413.2041)
 -->
<!-- Title: pastafarianism Pages: 1 -->
<svg width="909pt" height="260pt"
 viewBox="0.00 0.00 909.01 260.00" xmlns="http://www.w3.org/2000/svg" xmlns:xlink="http://www.w3.org/1999/xlink">
<g id="graph0" class="graph" transform="scale(1 1) rotate(0) translate(4 256)">
<title>pastafarianism</title>
<polygon fill="white" stroke="none" points="-4,4 -4,-256 905.014,-256 905.014,4 -4,4"/>
<!-- Level -->
<g id="node1" class="node"><title>Level</title>
<polygon fill="orange" stroke="black" points="445.415,-252 391.415,-252 391.415,-216 445.415,-216 445.415,-252"/>
<text text-anchor="middle" x="418.415" y="-231.8" font-family="Times New Roman,serif" font-size="9.00">Level</text>
</g>
<!-- Initial -->
<g id="node2" class="node"><title>Initial</title>
<ellipse fill="gray" stroke="black" cx="342.415" cy="-162" rx="27" ry="18"/>
<text text-anchor="middle" x="342.415" y="-159.8" font-family="Times New Roman,serif" font-size="9.00">Initial</text>
</g>
<!-- Level&#45;&gt;Initial -->
<g id="edge1" class="edge"><title>Level&#45;&gt;Initial</title>
<path fill="none" stroke="black" d="M399.628,-215.697C389.3,-206.184 376.401,-194.304 365.467,-184.233"/>
<polygon fill="black" stroke="black" points="367.644,-181.479 357.917,-177.279 362.902,-186.628 367.644,-181.479"/>
</g>
<!-- PP or SE -->
<g id="node3" class="node"><title>PP or SE</title>
<polygon fill="cyan" stroke="black" points="449.157,-154.544 449.157,-169.456 431.149,-180 405.681,-180 387.672,-169.456 387.672,-154.544 405.681,-144 431.149,-144 449.157,-154.544"/>
<text text-anchor="middle" x="418.415" y="-159.8" font-family="Times New Roman,serif" font-size="9.00">PP or SE</text>
</g>
<!-- Level&#45;&gt;PP or SE -->
<g id="edge2" class="edge"><title>Level&#45;&gt;PP or SE</title>
<path fill="none" stroke="black" d="M418.415,-215.697C418.415,-207.983 418.415,-198.712 418.415,-190.112"/>
<polygon fill="black" stroke="black" points="421.915,-190.104 418.415,-180.104 414.915,-190.104 421.915,-190.104"/>
</g>
<!-- G or V -->
<g id="node11" class="node"><title>G or V</title>
<polygon fill="cyan" stroke="black" points="676.415,-154.544 676.415,-169.456 660.598,-180 638.231,-180 622.415,-169.456 622.415,-154.544 638.231,-144 660.598,-144 676.415,-154.544"/>
<text text-anchor="middle" x="649.415" y="-159.8" font-family="Times New Roman,serif" font-size="9.00">G or V</text>
</g>
<!-- Level&#45;&gt;G or V -->
<g id="edge10" class="edge"><title>Level&#45;&gt;G or V</title>
<path fill="none" stroke="black" d="M445.82,-224.695C487.907,-211.942 568.416,-187.545 614.582,-173.555"/>
<polygon fill="black" stroke="black" points="615.605,-176.902 624.161,-170.653 613.575,-170.203 615.605,-176.902"/>
</g>
<!-- Check PP -->
<g id="node4" class="node"><title>Check PP</title>
<polygon fill="orange" stroke="black" points="221.415,-108 167.415,-108 167.415,-72 221.415,-72 221.415,-108"/>
<text text-anchor="middle" x="194.415" y="-87.8" font-family="Times New Roman,serif" font-size="9.00">Check PP</text>
</g>
<!-- PP or SE&#45;&gt;Check PP -->
<g id="edge3" class="edge"><title>PP or SE&#45;&gt;Check PP</title>
<path fill="none" stroke="black" d="M394.488,-150.273C389.239,-148.077 383.676,-145.868 378.415,-144 328.303,-126.208 268.976,-109.958 231.515,-100.269"/>
<polygon fill="black" stroke="black" points="232.111,-96.8085 221.555,-97.7143 230.371,-103.589 232.111,-96.8085"/>
</g>
<!-- SE -->
<g id="node8" class="node"><title>SE</title>
<polygon fill="orange" stroke="black" points="445.415,-108 391.415,-108 391.415,-72 445.415,-72 445.415,-108"/>
<text text-anchor="middle" x="418.415" y="-87.8" font-family="Times New Roman,serif" font-size="9.00">SE</text>
</g>
<!-- PP or SE&#45;&gt;SE -->
<g id="edge7" class="edge"><title>PP or SE&#45;&gt;SE</title>
<path fill="none" stroke="black" d="M418.415,-143.697C418.415,-135.983 418.415,-126.712 418.415,-118.112"/>
<polygon fill="black" stroke="black" points="421.915,-118.104 418.415,-108.104 414.915,-118.104 421.915,-118.104"/>
</g>
<!-- Do Path&#45;Pipe? -->
<g id="node5" class="node"><title>Do Path&#45;Pipe?</title>
<ellipse fill="gray" stroke="black" cx="40.4145" cy="-18" rx="40.3292" ry="18"/>
<text text-anchor="middle" x="40.4145" y="-15.8" font-family="Times New Roman,serif" font-size="9.00">Do Path&#45;Pipe?</text>
</g>
<!-- Check PP&#45;&gt;Do Path&#45;Pipe? -->
<g id="edge4" class="edge"><title>Check PP&#45;&gt;Do Path&#45;Pipe?</title>
<path fill="none" stroke="black" d="M167.237,-76.6465C142.133,-65.2359 104.649,-48.1974 76.9371,-35.6012"/>
<polygon fill="black" stroke="black" points="78.131,-32.2993 67.579,-31.3475 75.2344,-38.6719 78.131,-32.2993"/>
</g>
<!-- Paths and Pipes -->
<g id="node6" class="node"><title>Paths and Pipes</title>
<ellipse fill="gray" stroke="black" cx="141.415" cy="-18" rx="42.949" ry="18"/>
<text text-anchor="middle" x="141.415" y="-15.8" font-family="Times New Roman,serif" font-size="9.00">Paths and Pipes</text>
</g>
<!-- Check PP&#45;&gt;Paths and Pipes -->
<g id="edge5" class="edge"><title>Check PP&#45;&gt;Paths and Pipes</title>
<path fill="none" stroke="black" d="M181.313,-71.6966C174.93,-63.2653 167.138,-52.9748 160.14,-43.7323"/>
<polygon fill="black" stroke="black" points="162.827,-41.4822 154,-35.6223 157.246,-45.7077 162.827,-41.4822"/>
</g>
<!-- Paths and Pipes* -->
<g id="node7" class="node"><title>Paths and Pipes*</title>
<ellipse fill="gray" stroke="black" cx="247.415" cy="-18" rx="45.7216" ry="18"/>
<text text-anchor="middle" x="247.415" y="-15.8" font-family="Times New Roman,serif" font-size="9.00">Paths and Pipes*</text>
</g>
<!-- Check PP&#45;&gt;Paths and Pipes* -->
<g id="edge6" class="edge"><title>Check PP&#45;&gt;Paths and Pipes*</title>
<path fill="none" stroke="black" d="M207.516,-71.6966C213.899,-63.2653 221.691,-52.9748 228.689,-43.7323"/>
<polygon fill="black" stroke="black" points="231.583,-45.7077 234.829,-35.6223 226.002,-41.4822 231.583,-45.7077"/>
</g>
<!-- Stairs and Enemies -->
<g id="node9" class="node"><title>Stairs and Enemies</title>
<ellipse fill="gray" stroke="black" cx="359.415" cy="-18" rx="48.4948" ry="18"/>
<text text-anchor="middle" x="359.415" y="-15.8" font-family="Times New Roman,serif" font-size="9.00">Stairs and Enemies</text>
</g>
<!-- SE&#45;&gt;Stairs and Enemies -->
<g id="edge8" class="edge"><title>SE&#45;&gt;Stairs and Enemies</title>
<path fill="none" stroke="black" d="M403.83,-71.6966C396.651,-63.1793 387.873,-52.7646 380.022,-43.4497"/>
<polygon fill="black" stroke="black" points="382.546,-41.0129 373.425,-35.6223 377.193,-45.5243 382.546,-41.0129"/>
</g>
<!-- Stairs and Enemies* -->
<g id="node10" class="node"><title>Stairs and Enemies*</title>
<ellipse fill="gray" stroke="black" cx="477.415" cy="-18" rx="51.2686" ry="18"/>
<text text-anchor="middle" x="477.415" y="-15.8" font-family="Times New Roman,serif" font-size="9.00">Stairs and Enemies*</text>
</g>
<!-- SE&#45;&gt;Stairs and Enemies* -->
<g id="edge9" class="edge"><title>SE&#45;&gt;Stairs and Enemies*</title>
<path fill="none" stroke="black" d="M432.999,-71.6966C440.178,-63.1793 448.956,-52.7646 456.807,-43.4497"/>
<polygon fill="black" stroke="black" points="459.636,-45.5243 463.404,-35.6223 454.283,-41.0129 459.636,-45.5243"/>
</g>
<!-- Check Gap -->
<g id="node12" class="node"><title>Check Gap</title>
<polygon fill="orange" stroke="black" points="677.915,-108 620.915,-108 620.915,-72 677.915,-72 677.915,-108"/>
<text text-anchor="middle" x="649.415" y="-87.8" font-family="Times New Roman,serif" font-size="9.00">Check Gap</text>
</g>
<!-- G or V&#45;&gt;Check Gap -->
<g id="edge11" class="edge"><title>G or V&#45;&gt;Check Gap</title>
<path fill="none" stroke="black" d="M649.415,-143.697C649.415,-135.983 649.415,-126.712 649.415,-118.112"/>
<polygon fill="black" stroke="black" points="652.915,-118.104 649.415,-108.104 645.915,-118.104 652.915,-118.104"/>
</g>
<!-- Valleys -->
<g id="node16" class="node"><title>Valleys</title>
<polygon fill="orange" stroke="black" points="821.415,-108 767.415,-108 767.415,-72 821.415,-72 821.415,-108"/>
<text text-anchor="middle" x="794.415" y="-87.8" font-family="Times New Roman,serif" font-size="9.00">Valleys</text>
</g>
<!-- G or V&#45;&gt;Valleys -->
<g id="edge15" class="edge"><title>G or V&#45;&gt;Valleys</title>
<path fill="none" stroke="black" d="M670.81,-150.671C693.712,-139.615 730.458,-121.876 757.942,-108.607"/>
<polygon fill="black" stroke="black" points="759.756,-111.618 767.24,-104.119 756.712,-105.315 759.756,-111.618"/>
</g>
<!-- Do Gap? -->
<g id="node13" class="node"><title>Do Gap?</title>
<ellipse fill="gray" stroke="black" cx="575.415" cy="-18" rx="28.7356" ry="18"/>
<text text-anchor="middle" x="575.415" y="-15.8" font-family="Times New Roman,serif" font-size="9.00">Do Gap?</text>
</g>
<!-- Check Gap&#45;&gt;Do Gap? -->
<g id="edge12" class="edge"><title>Check Gap&#45;&gt;Do Gap?</title>
<path fill="none" stroke="black" d="M631.122,-71.6966C621.204,-62.3139 608.851,-50.6286 598.299,-40.6476"/>
<polygon fill="black" stroke="black" points="600.665,-38.0677 590.995,-33.7383 595.855,-43.153 600.665,-38.0677"/>
</g>
<!-- Gaps -->
<g id="node14" class="node"><title>Gaps</title>
<ellipse fill="gray" stroke="black" cx="649.415" cy="-18" rx="27" ry="18"/>
<text text-anchor="middle" x="649.415" y="-15.8" font-family="Times New Roman,serif" font-size="9.00">Gaps</text>
</g>
<!-- Check Gap&#45;&gt;Gaps -->
<g id="edge13" class="edge"><title>Check Gap&#45;&gt;Gaps</title>
<path fill="none" stroke="black" d="M649.415,-71.6966C649.415,-63.9827 649.415,-54.7125 649.415,-46.1124"/>
<polygon fill="black" stroke="black" points="652.915,-46.1043 649.415,-36.1043 645.915,-46.1044 652.915,-46.1043"/>
</g>
<!-- Gaps* -->
<g id="node15" class="node"><title>Gaps*</title>
<ellipse fill="gray" stroke="black" cx="721.415" cy="-18" rx="27" ry="18"/>
<text text-anchor="middle" x="721.415" y="-15.8" font-family="Times New Roman,serif" font-size="9.00">Gaps*</text>
</g>
<!-- Check Gap&#45;&gt;Gaps* -->
<g id="edge14" class="edge"><title>Check Gap&#45;&gt;Gaps*</title>
<path fill="none" stroke="black" d="M667.212,-71.6966C676.902,-62.276 688.979,-50.5341 699.273,-40.5265"/>
<polygon fill="black" stroke="black" points="701.997,-42.7593 706.728,-33.279 697.118,-37.7403 701.997,-42.7593"/>
</g>
<!-- Valleys* -->
<g id="node17" class="node"><title>Valleys*</title>
<ellipse fill="gray" stroke="black" cx="794.415" cy="-18" rx="27.9273" ry="18"/>
<text text-anchor="middle" x="794.415" y="-15.8" font-family="Times New Roman,serif" font-size="9.00">Valleys*</text>
</g>
<!-- Valleys&#45;&gt;Valleys* -->
<g id="edge16" class="edge"><title>Valleys&#45;&gt;Valleys*</title>
<path fill="none" stroke="black" d="M794.415,-71.6966C794.415,-63.9827 794.415,-54.7125 794.415,-46.1124"/>
<polygon fill="black" stroke="black" points="797.915,-46.1043 794.415,-36.1043 790.915,-46.1044 797.915,-46.1043"/>
</g>
<!-- Valleys** -->
<g id="node18" class="node"><title>Valleys**</title>
<ellipse fill="gray" stroke="black" cx="870.415" cy="-18" rx="30.6995" ry="18"/>
<text text-anchor="middle" x="870.415" y="-15.8" font-family="Times New Roman,serif" font-size="9.00">Valleys**</text>
</g>
<!-- Valleys&#45;&gt;Valleys** -->
<g id="edge17" class="edge"><title>Valleys&#45;&gt;Valleys**</title>
<path fill="none" stroke="black" d="M813.201,-71.6966C823.388,-62.3139 836.075,-50.6286 846.911,-40.6476"/>
<polygon fill="black" stroke="black" points="849.429,-43.0875 854.413,-33.7383 844.686,-37.9387 849.429,-43.0875"/>
</g>
</g>
</svg>
