<?xml version="1.0" encoding="UTF-8" standalone="no"?>
<!DOCTYPE svg PUBLIC "-//W3C//DTD SVG 1.1//EN"
 "http://www.w3.org/Graphics/SVG/1.1/DTD/svg11.dtd">
<!-- Generated by graphviz version 2.38.0 (20140413.2041)
 -->
<!-- Title: pastafarianism Pages: 1 -->
<svg width="781pt" height="404pt"
 viewBox="0.00 0.00 780.75 404.00" xmlns="http://www.w3.org/2000/svg" xmlns:xlink="http://www.w3.org/1999/xlink">
<g id="graph0" class="graph" transform="scale(1 1) rotate(0) translate(4 400)">
<title>pastafarianism</title>
<polygon fill="white" stroke="none" points="-4,4 -4,-400 776.746,-400 776.746,4 -4,4"/>
<!-- Level -->
<g id="node1" class="node"><title>Level</title>
<polygon fill="orange" stroke="black" points="390.147,-396 336.147,-396 336.147,-360 390.147,-360 390.147,-396"/>
<text text-anchor="middle" x="363.147" y="-375.8" font-family="Times New Roman,serif" font-size="9.00">Level</text>
</g>
<!-- Init Horizontal -->
<g id="node2" class="node"><title>Init Horizontal</title>
<ellipse fill="gray" stroke="black" cx="119.147" cy="-306" rx="40.9837" ry="18"/>
<text text-anchor="middle" x="119.147" y="-303.8" font-family="Times New Roman,serif" font-size="9.00">Init Horizontal</text>
</g>
<!-- Level&#45;&gt;Init Horizontal -->
<g id="edge1" class="edge"><title>Level&#45;&gt;Init Horizontal</title>
<path fill="none" stroke="black" d="M336.006,-370.144C298.356,-360.506 228.236,-342.098 169.147,-324 166.174,-323.09 163.112,-322.122 160.036,-321.129"/>
<polygon fill="black" stroke="black" points="160.85,-317.712 150.257,-317.905 158.659,-324.36 160.85,-317.712"/>
</g>
<!-- Horizontal or Vertical -->
<g id="node3" class="node"><title>Horizontal or Vertical</title>
<polygon fill="cyan" stroke="black" points="296.382,-298.544 296.382,-313.456 261.683,-324 212.611,-324 177.912,-313.456 177.912,-298.544 212.611,-288 261.683,-288 296.382,-298.544"/>
<text text-anchor="middle" x="237.147" y="-303.8" font-family="Times New Roman,serif" font-size="9.00">Horizontal or Vertical</text>
</g>
<!-- Level&#45;&gt;Horizontal or Vertical -->
<g id="edge2" class="edge"><title>Level&#45;&gt;Horizontal or Vertical</title>
<path fill="none" stroke="black" d="M336.116,-361.983C318.182,-352.02 294.4,-338.807 274.643,-327.831"/>
<polygon fill="black" stroke="black" points="276.326,-324.762 265.884,-322.966 272.926,-330.882 276.326,-324.762"/>
</g>
<!-- Middle Horizontal -->
<g id="node18" class="node"><title>Middle Horizontal</title>
<ellipse fill="gray" stroke="black" cx="363.147" cy="-306" rx="48.4948" ry="18"/>
<text text-anchor="middle" x="363.147" y="-303.8" font-family="Times New Roman,serif" font-size="9.00">Middle Horizontal</text>
</g>
<!-- Level&#45;&gt;Middle Horizontal -->
<g id="edge17" class="edge"><title>Level&#45;&gt;Middle Horizontal</title>
<path fill="none" stroke="black" d="M363.147,-359.697C363.147,-351.983 363.147,-342.712 363.147,-334.112"/>
<polygon fill="black" stroke="black" points="366.647,-334.104 363.147,-324.104 359.647,-334.104 366.647,-334.104"/>
</g>
<!-- Vertical* -->
<g id="node19" class="node"><title>Vertical*</title>
<polygon fill="cyan" stroke="black" points="490.889,-298.544 490.889,-313.456 472.881,-324 447.413,-324 429.404,-313.456 429.404,-298.544 447.413,-288 472.881,-288 490.889,-298.544"/>
<text text-anchor="middle" x="460.147" y="-303.8" font-family="Times New Roman,serif" font-size="9.00">Vertical*</text>
</g>
<!-- Level&#45;&gt;Vertical* -->
<g id="edge18" class="edge"><title>Level&#45;&gt;Vertical*</title>
<path fill="none" stroke="black" d="M387.124,-359.697C400.969,-349.705 418.432,-337.103 432.809,-326.728"/>
<polygon fill="black" stroke="black" points="435.241,-329.289 441.302,-320.599 431.145,-323.613 435.241,-329.289"/>
</g>
<!-- Final Horizontal -->
<g id="node30" class="node"><title>Final Horizontal</title>
<ellipse fill="gray" stroke="black" cx="552.147" cy="-306" rx="43.7576" ry="18"/>
<text text-anchor="middle" x="552.147" y="-303.8" font-family="Times New Roman,serif" font-size="9.00">Final Horizontal</text>
</g>
<!-- Level&#45;&gt;Final Horizontal -->
<g id="edge29" class="edge"><title>Level&#45;&gt;Final Horizontal</title>
<path fill="none" stroke="black" d="M390.226,-366.971C421.895,-355.241 474.645,-335.704 511.295,-322.13"/>
<polygon fill="black" stroke="black" points="512.546,-325.399 520.708,-318.644 510.115,-318.835 512.546,-325.399"/>
</g>
<!-- Check -->
<g id="node4" class="node"><title>Check</title>
<polygon fill="orange" stroke="black" points="161.147,-252 107.147,-252 107.147,-216 161.147,-216 161.147,-252"/>
<text text-anchor="middle" x="134.147" y="-231.8" font-family="Times New Roman,serif" font-size="9.00">Check</text>
</g>
<!-- Horizontal or Vertical&#45;&gt;Check -->
<g id="edge3" class="edge"><title>Horizontal or Vertical&#45;&gt;Check</title>
<path fill="none" stroke="black" d="M212.213,-288.055C198.901,-279.008 182.328,-267.744 167.88,-257.926"/>
<polygon fill="black" stroke="black" points="169.445,-254.758 159.207,-252.032 165.511,-260.547 169.445,-254.758"/>
</g>
<!-- Vertical -->
<g id="node7" class="node"><title>Vertical</title>
<polygon fill="cyan" stroke="black" points="264.639,-226.544 264.639,-241.456 248.535,-252 225.759,-252 209.654,-241.456 209.654,-226.544 225.759,-216 248.535,-216 264.639,-226.544"/>
<text text-anchor="middle" x="237.147" y="-231.8" font-family="Times New Roman,serif" font-size="9.00">Vertical</text>
</g>
<!-- Horizontal or Vertical&#45;&gt;Vertical -->
<g id="edge6" class="edge"><title>Horizontal or Vertical&#45;&gt;Vertical</title>
<path fill="none" stroke="black" d="M237.147,-287.697C237.147,-279.983 237.147,-270.712 237.147,-262.112"/>
<polygon fill="black" stroke="black" points="240.647,-262.104 237.147,-252.104 233.647,-262.104 240.647,-262.104"/>
</g>
<!-- Do Horizontal? -->
<g id="node5" class="node"><title>Do Horizontal?</title>
<ellipse fill="gray" stroke="black" cx="42.1466" cy="-162" rx="42.2937" ry="18"/>
<text text-anchor="middle" x="42.1466" y="-159.8" font-family="Times New Roman,serif" font-size="9.00">Do Horizontal?</text>
</g>
<!-- Check&#45;&gt;Do Horizontal? -->
<g id="edge4" class="edge"><title>Check&#45;&gt;Do Horizontal?</title>
<path fill="none" stroke="black" d="M111.405,-215.697C98.9213,-206.198 83.3362,-194.34 70.1132,-184.279"/>
<polygon fill="black" stroke="black" points="71.8988,-181.24 61.8211,-177.97 67.6601,-186.81 71.8988,-181.24"/>
</g>
<!-- Horizontal -->
<g id="node6" class="node"><title>Horizontal</title>
<ellipse fill="gray" stroke="black" cx="134.147" cy="-162" rx="32.1641" ry="18"/>
<text text-anchor="middle" x="134.147" y="-159.8" font-family="Times New Roman,serif" font-size="9.00">Horizontal</text>
</g>
<!-- Check&#45;&gt;Horizontal -->
<g id="edge5" class="edge"><title>Check&#45;&gt;Horizontal</title>
<path fill="none" stroke="black" d="M134.147,-215.697C134.147,-207.983 134.147,-198.712 134.147,-190.112"/>
<polygon fill="black" stroke="black" points="137.647,-190.104 134.147,-180.104 130.647,-190.104 137.647,-190.104"/>
</g>
<!-- Check* -->
<g id="node8" class="node"><title>Check*</title>
<polygon fill="orange" stroke="black" points="238.147,-180 184.147,-180 184.147,-144 238.147,-144 238.147,-180"/>
<text text-anchor="middle" x="211.147" y="-159.8" font-family="Times New Roman,serif" font-size="9.00">Check*</text>
</g>
<!-- Vertical&#45;&gt;Check* -->
<g id="edge7" class="edge"><title>Vertical&#45;&gt;Check*</title>
<path fill="none" stroke="black" d="M230.72,-215.697C227.791,-207.813 224.26,-198.304 221.007,-189.546"/>
<polygon fill="black" stroke="black" points="224.263,-188.26 217.5,-180.104 217.701,-190.697 224.263,-188.26"/>
</g>
<!-- Downward -->
<g id="node14" class="node"><title>Downward</title>
<polygon fill="orange" stroke="black" points="314.647,-180 257.647,-180 257.647,-144 314.647,-144 314.647,-180"/>
<text text-anchor="middle" x="286.147" y="-159.8" font-family="Times New Roman,serif" font-size="9.00">Downward</text>
</g>
<!-- Vertical&#45;&gt;Downward -->
<g id="edge13" class="edge"><title>Vertical&#45;&gt;Downward</title>
<path fill="none" stroke="black" d="M249.008,-216.055C254.76,-207.837 261.793,-197.791 268.185,-188.66"/>
<polygon fill="black" stroke="black" points="271.187,-190.475 274.054,-180.275 265.452,-186.461 271.187,-190.475"/>
</g>
<!-- Do Upward? -->
<g id="node9" class="node"><title>Do Upward?</title>
<ellipse fill="gray" stroke="black" cx="46.1466" cy="-90" rx="36.9009" ry="18"/>
<text text-anchor="middle" x="46.1466" y="-87.8" font-family="Times New Roman,serif" font-size="9.00">Do Upward?</text>
</g>
<!-- Check*&#45;&gt;Do Upward? -->
<g id="edge8" class="edge"><title>Check*&#45;&gt;Do Upward?</title>
<path fill="none" stroke="black" d="M184.088,-148.04C181.081,-146.654 178.055,-145.283 175.147,-144 144.504,-130.481 109.312,-116.097 83.434,-105.73"/>
<polygon fill="black" stroke="black" points="84.5859,-102.422 74.0009,-101.964 81.9902,-108.923 84.5859,-102.422"/>
</g>
<!-- Upward -->
<g id="node10" class="node"><title>Upward</title>
<polygon fill="orange" stroke="black" points="155.147,-108 101.147,-108 101.147,-72 155.147,-72 155.147,-108"/>
<text text-anchor="middle" x="128.147" y="-87.8" font-family="Times New Roman,serif" font-size="9.00">Upward</text>
</g>
<!-- Check*&#45;&gt;Upward -->
<g id="edge9" class="edge"><title>Check*&#45;&gt;Upward</title>
<path fill="none" stroke="black" d="M190.63,-143.697C180.277,-134.965 167.56,-124.24 156.308,-114.75"/>
<polygon fill="black" stroke="black" points="158.328,-111.876 148.427,-108.104 153.815,-117.227 158.328,-111.876"/>
</g>
<!-- UpLeft -->
<g id="node11" class="node"><title>UpLeft</title>
<ellipse fill="gray" stroke="black" cx="54.1466" cy="-18" rx="27" ry="18"/>
<text text-anchor="middle" x="54.1466" y="-15.8" font-family="Times New Roman,serif" font-size="9.00">UpLeft</text>
</g>
<!-- Upward&#45;&gt;UpLeft -->
<g id="edge10" class="edge"><title>Upward&#45;&gt;UpLeft</title>
<path fill="none" stroke="black" d="M109.854,-71.6966C99.7978,-62.1836 87.239,-50.3036 76.5926,-40.2327"/>
<polygon fill="black" stroke="black" points="78.9114,-37.6083 69.2415,-33.279 74.101,-42.6936 78.9114,-37.6083"/>
</g>
<!-- UpDown -->
<g id="node12" class="node"><title>UpDown</title>
<ellipse fill="gray" stroke="black" cx="128.147" cy="-18" rx="29.3898" ry="18"/>
<text text-anchor="middle" x="128.147" y="-15.8" font-family="Times New Roman,serif" font-size="9.00">UpDown</text>
</g>
<!-- Upward&#45;&gt;UpDown -->
<g id="edge11" class="edge"><title>Upward&#45;&gt;UpDown</title>
<path fill="none" stroke="black" d="M128.147,-71.6966C128.147,-63.9827 128.147,-54.7125 128.147,-46.1124"/>
<polygon fill="black" stroke="black" points="131.647,-46.1043 128.147,-36.1043 124.647,-46.1044 131.647,-46.1043"/>
</g>
<!-- DownRight -->
<g id="node13" class="node"><title>DownRight</title>
<ellipse fill="gray" stroke="black" cx="210.147" cy="-18" rx="34.1275" ry="18"/>
<text text-anchor="middle" x="210.147" y="-15.8" font-family="Times New Roman,serif" font-size="9.00">DownRight</text>
</g>
<!-- Upward&#45;&gt;DownRight -->
<g id="edge12" class="edge"><title>Upward&#45;&gt;DownRight</title>
<path fill="none" stroke="black" d="M148.416,-71.6966C159.514,-62.2228 173.362,-50.4015 185.128,-40.3574"/>
<polygon fill="black" stroke="black" points="187.548,-42.8929 192.882,-33.7383 183.004,-37.569 187.548,-42.8929"/>
</g>
<!-- DownLeft -->
<g id="node15" class="node"><title>DownLeft</title>
<ellipse fill="gray" stroke="black" cx="204.147" cy="-90" rx="31.3548" ry="18"/>
<text text-anchor="middle" x="204.147" y="-87.8" font-family="Times New Roman,serif" font-size="9.00">DownLeft</text>
</g>
<!-- Downward&#45;&gt;DownLeft -->
<g id="edge14" class="edge"><title>Downward&#45;&gt;DownLeft</title>
<path fill="none" stroke="black" d="M265.877,-143.697C254.625,-134.091 240.546,-122.073 228.676,-111.94"/>
<polygon fill="black" stroke="black" points="230.751,-109.11 220.873,-105.279 226.207,-114.434 230.751,-109.11"/>
</g>
<!-- UpDown* -->
<g id="node16" class="node"><title>UpDown*</title>
<ellipse fill="gray" stroke="black" cx="286.147" cy="-90" rx="32.1641" ry="18"/>
<text text-anchor="middle" x="286.147" y="-87.8" font-family="Times New Roman,serif" font-size="9.00">UpDown*</text>
</g>
<!-- Downward&#45;&gt;UpDown* -->
<g id="edge15" class="edge"><title>Downward&#45;&gt;UpDown*</title>
<path fill="none" stroke="black" d="M286.147,-143.697C286.147,-135.983 286.147,-126.712 286.147,-118.112"/>
<polygon fill="black" stroke="black" points="289.647,-118.104 286.147,-108.104 282.647,-118.104 289.647,-118.104"/>
</g>
<!-- UpRight -->
<g id="node17" class="node"><title>UpRight</title>
<ellipse fill="gray" stroke="black" cx="364.147" cy="-90" rx="27.9273" ry="18"/>
<text text-anchor="middle" x="364.147" y="-87.8" font-family="Times New Roman,serif" font-size="9.00">UpRight</text>
</g>
<!-- Downward&#45;&gt;UpRight -->
<g id="edge16" class="edge"><title>Downward&#45;&gt;UpRight</title>
<path fill="none" stroke="black" d="M305.427,-143.697C316.204,-134.025 329.706,-121.908 341.045,-111.732"/>
<polygon fill="black" stroke="black" points="343.385,-114.335 348.49,-105.051 338.709,-109.125 343.385,-114.335"/>
</g>
<!-- Check** -->
<g id="node20" class="node"><title>Check**</title>
<polygon fill="orange" stroke="black" points="487.147,-252 433.147,-252 433.147,-216 487.147,-216 487.147,-252"/>
<text text-anchor="middle" x="460.147" y="-231.8" font-family="Times New Roman,serif" font-size="9.00">Check**</text>
</g>
<!-- Vertical*&#45;&gt;Check** -->
<g id="edge19" class="edge"><title>Vertical*&#45;&gt;Check**</title>
<path fill="none" stroke="black" d="M460.147,-287.697C460.147,-279.983 460.147,-270.712 460.147,-262.112"/>
<polygon fill="black" stroke="black" points="463.647,-262.104 460.147,-252.104 456.647,-262.104 463.647,-262.104"/>
</g>
<!-- Downward* -->
<g id="node26" class="node"><title>Downward*</title>
<polygon fill="orange" stroke="black" points="642.147,-252 580.147,-252 580.147,-216 642.147,-216 642.147,-252"/>
<text text-anchor="middle" x="611.147" y="-231.8" font-family="Times New Roman,serif" font-size="9.00">Downward*</text>
</g>
<!-- Vertical*&#45;&gt;Downward* -->
<g id="edge25" class="edge"><title>Vertical*&#45;&gt;Downward*</title>
<path fill="none" stroke="black" d="M483.74,-294.063C507.066,-283.249 543.203,-266.497 571.041,-253.592"/>
<polygon fill="black" stroke="black" points="572.533,-256.758 580.134,-249.377 569.589,-250.407 572.533,-256.758"/>
</g>
<!-- Do Upward?* -->
<g id="node21" class="node"><title>Do Upward?*</title>
<ellipse fill="gray" stroke="black" cx="403.147" cy="-162" rx="39.0211" ry="18"/>
<text text-anchor="middle" x="403.147" y="-159.8" font-family="Times New Roman,serif" font-size="9.00">Do Upward?*</text>
</g>
<!-- Check**&#45;&gt;Do Upward?* -->
<g id="edge20" class="edge"><title>Check**&#45;&gt;Do Upward?*</title>
<path fill="none" stroke="black" d="M446.057,-215.697C439.019,-207.054 430.391,-196.458 422.722,-187.039"/>
<polygon fill="black" stroke="black" points="425.321,-184.689 416.293,-179.145 419.893,-189.109 425.321,-184.689"/>
</g>
<!-- Upward* -->
<g id="node22" class="node"><title>Upward*</title>
<polygon fill="orange" stroke="black" points="514.147,-180 460.147,-180 460.147,-144 514.147,-144 514.147,-180"/>
<text text-anchor="middle" x="487.147" y="-159.8" font-family="Times New Roman,serif" font-size="9.00">Upward*</text>
</g>
<!-- Check**&#45;&gt;Upward* -->
<g id="edge21" class="edge"><title>Check**&#45;&gt;Upward*</title>
<path fill="none" stroke="black" d="M466.821,-215.697C469.861,-207.813 473.529,-198.304 476.907,-189.546"/>
<polygon fill="black" stroke="black" points="480.216,-190.694 480.549,-180.104 473.685,-188.175 480.216,-190.694"/>
</g>
<!-- UpLeft* -->
<g id="node23" class="node"><title>UpLeft*</title>
<ellipse fill="gray" stroke="black" cx="437.147" cy="-90" rx="27.9273" ry="18"/>
<text text-anchor="middle" x="437.147" y="-87.8" font-family="Times New Roman,serif" font-size="9.00">UpLeft*</text>
</g>
<!-- Upward*&#45;&gt;UpLeft* -->
<g id="edge22" class="edge"><title>Upward*&#45;&gt;UpLeft*</title>
<path fill="none" stroke="black" d="M474.787,-143.697C468.588,-135.017 460.981,-124.368 454.232,-114.92"/>
<polygon fill="black" stroke="black" points="457.001,-112.774 448.34,-106.671 451.305,-116.843 457.001,-112.774"/>
</g>
<!-- UpDown** -->
<g id="node24" class="node"><title>UpDown**</title>
<ellipse fill="gray" stroke="black" cx="517.147" cy="-90" rx="34.7826" ry="18"/>
<text text-anchor="middle" x="517.147" y="-87.8" font-family="Times New Roman,serif" font-size="9.00">UpDown**</text>
</g>
<!-- Upward*&#45;&gt;UpDown** -->
<g id="edge23" class="edge"><title>Upward*&#45;&gt;UpDown**</title>
<path fill="none" stroke="black" d="M494.562,-143.697C498.028,-135.609 502.227,-125.812 506.06,-116.869"/>
<polygon fill="black" stroke="black" points="509.3,-118.192 510.023,-107.622 502.866,-115.435 509.3,-118.192"/>
</g>
<!-- DownRight* -->
<g id="node25" class="node"><title>DownRight*</title>
<ellipse fill="gray" stroke="black" cx="606.147" cy="-90" rx="36.2466" ry="18"/>
<text text-anchor="middle" x="606.147" y="-87.8" font-family="Times New Roman,serif" font-size="9.00">DownRight*</text>
</g>
<!-- Upward*&#45;&gt;DownRight* -->
<g id="edge24" class="edge"><title>Upward*&#45;&gt;DownRight*</title>
<path fill="none" stroke="black" d="M514.15,-145.116C532.182,-134.508 555.96,-120.522 574.824,-109.425"/>
<polygon fill="black" stroke="black" points="576.799,-112.324 583.643,-104.237 573.249,-106.291 576.799,-112.324"/>
</g>
<!-- DownLeft* -->
<g id="node27" class="node"><title>DownLeft*</title>
<ellipse fill="gray" stroke="black" cx="566.147" cy="-162" rx="34.1275" ry="18"/>
<text text-anchor="middle" x="566.147" y="-159.8" font-family="Times New Roman,serif" font-size="9.00">DownLeft*</text>
</g>
<!-- Downward*&#45;&gt;DownLeft* -->
<g id="edge26" class="edge"><title>Downward*&#45;&gt;DownLeft*</title>
<path fill="none" stroke="black" d="M600.023,-215.697C594.579,-207.229 587.93,-196.885 581.968,-187.612"/>
<polygon fill="black" stroke="black" points="584.877,-185.664 576.525,-179.145 578.989,-189.449 584.877,-185.664"/>
</g>
<!-- UpDown*** -->
<g id="node28" class="node"><title>UpDown***</title>
<ellipse fill="gray" stroke="black" cx="656.147" cy="-162" rx="37.5556" ry="18"/>
<text text-anchor="middle" x="656.147" y="-159.8" font-family="Times New Roman,serif" font-size="9.00">UpDown***</text>
</g>
<!-- Downward*&#45;&gt;UpDown*** -->
<g id="edge27" class="edge"><title>Downward*&#45;&gt;UpDown***</title>
<path fill="none" stroke="black" d="M622.27,-215.697C627.58,-207.437 634.036,-197.394 639.883,-188.299"/>
<polygon fill="black" stroke="black" points="642.997,-189.927 645.461,-179.622 637.109,-186.141 642.997,-189.927"/>
</g>
<!-- UpRight* -->
<g id="node29" class="node"><title>UpRight*</title>
<ellipse fill="gray" stroke="black" cx="742.147" cy="-162" rx="30.6995" ry="18"/>
<text text-anchor="middle" x="742.147" y="-159.8" font-family="Times New Roman,serif" font-size="9.00">UpRight*</text>
</g>
<!-- Downward*&#45;&gt;UpRight* -->
<g id="edge28" class="edge"><title>Downward*&#45;&gt;UpRight*</title>
<path fill="none" stroke="black" d="M642.192,-216.411C663.056,-205.262 690.442,-190.628 711.271,-179.498"/>
<polygon fill="black" stroke="black" points="713.163,-182.456 720.333,-174.656 709.864,-176.282 713.163,-182.456"/>
</g>
</g>
</svg>
