<?xml version="1.0" encoding="UTF-8" standalone="no"?>
<!DOCTYPE svg PUBLIC "-//W3C//DTD SVG 1.1//EN"
 "http://www.w3.org/Graphics/SVG/1.1/DTD/svg11.dtd">
<!-- Generated by graphviz version 2.38.0 (20140413.2041)
 -->
<!-- Title: pastafarianism Pages: 1 -->
<svg width="537pt" height="260pt"
 viewBox="0.00 0.00 536.80 260.00" xmlns="http://www.w3.org/2000/svg" xmlns:xlink="http://www.w3.org/1999/xlink">
<g id="graph0" class="graph" transform="scale(1 1) rotate(0) translate(4 256)">
<title>pastafarianism</title>
<polygon fill="white" stroke="none" points="-4,4 -4,-256 532.799,-256 532.799,4 -4,4"/>
<!-- Level -->
<g id="node1" class="node"><title>Level</title>
<polygon fill="orange" stroke="black" points="304.415,-252 250.415,-252 250.415,-216 304.415,-216 304.415,-252"/>
<text text-anchor="middle" x="277.415" y="-231.8" font-family="Times New Roman,serif" font-size="9.00">Level</text>
</g>
<!-- Initial -->
<g id="node2" class="node"><title>Initial</title>
<ellipse fill="gray" stroke="black" cx="201.415" cy="-162" rx="27" ry="18"/>
<text text-anchor="middle" x="201.415" y="-159.8" font-family="Times New Roman,serif" font-size="9.00">Initial</text>
</g>
<!-- Level&#45;&gt;Initial -->
<g id="edge1" class="edge"><title>Level&#45;&gt;Initial</title>
<path fill="none" stroke="black" d="M258.628,-215.697C248.3,-206.184 235.401,-194.304 224.467,-184.233"/>
<polygon fill="black" stroke="black" points="226.644,-181.479 216.917,-177.279 221.902,-186.628 226.644,-181.479"/>
</g>
<!-- PP or SE -->
<g id="node3" class="node"><title>PP or SE</title>
<polygon fill="cyan" stroke="black" points="308.157,-154.544 308.157,-169.456 290.149,-180 264.681,-180 246.672,-169.456 246.672,-154.544 264.681,-144 290.149,-144 308.157,-154.544"/>
<text text-anchor="middle" x="277.415" y="-159.8" font-family="Times New Roman,serif" font-size="9.00">PP or SE</text>
</g>
<!-- Level&#45;&gt;PP or SE -->
<g id="edge2" class="edge"><title>Level&#45;&gt;PP or SE</title>
<path fill="none" stroke="black" d="M277.415,-215.697C277.415,-207.983 277.415,-198.712 277.415,-190.112"/>
<polygon fill="black" stroke="black" points="280.915,-190.104 277.415,-180.104 273.915,-190.104 280.915,-190.104"/>
</g>
<!-- G or V -->
<g id="node11" class="node"><title>G or V</title>
<polygon fill="cyan" stroke="black" points="380.415,-154.544 380.415,-169.456 364.598,-180 342.231,-180 326.415,-169.456 326.415,-154.544 342.231,-144 364.598,-144 380.415,-154.544"/>
<text text-anchor="middle" x="353.415" y="-159.8" font-family="Times New Roman,serif" font-size="9.00">G or V</text>
</g>
<!-- Level&#45;&gt;G or V -->
<g id="edge10" class="edge"><title>Level&#45;&gt;G or V</title>
<path fill="none" stroke="black" d="M296.201,-215.697C306.529,-206.184 319.428,-194.304 330.362,-184.233"/>
<polygon fill="black" stroke="black" points="332.927,-186.628 337.912,-177.279 328.185,-181.479 332.927,-186.628"/>
</g>
<!-- Check PP -->
<g id="node4" class="node"><title>Check PP</title>
<polygon fill="orange" stroke="black" points="221.415,-108 167.415,-108 167.415,-72 221.415,-72 221.415,-108"/>
<text text-anchor="middle" x="194.415" y="-87.8" font-family="Times New Roman,serif" font-size="9.00">Check PP</text>
</g>
<!-- PP or SE&#45;&gt;Check PP -->
<g id="edge3" class="edge"><title>PP or SE&#45;&gt;Check PP</title>
<path fill="none" stroke="black" d="M260.217,-146.496C249.389,-137.364 235.152,-125.357 222.691,-114.848"/>
<polygon fill="black" stroke="black" points="224.714,-111.975 214.813,-108.204 220.201,-117.326 224.714,-111.975"/>
</g>
<!-- SE -->
<g id="node8" class="node"><title>SE</title>
<polygon fill="orange" stroke="black" points="386.415,-108 332.415,-108 332.415,-72 386.415,-72 386.415,-108"/>
<text text-anchor="middle" x="359.415" y="-87.8" font-family="Times New Roman,serif" font-size="9.00">SE</text>
</g>
<!-- PP or SE&#45;&gt;SE -->
<g id="edge7" class="edge"><title>PP or SE&#45;&gt;SE</title>
<path fill="none" stroke="black" d="M294.805,-146.155C305.526,-137.003 319.514,-125.061 331.732,-114.631"/>
<polygon fill="black" stroke="black" points="334.12,-117.195 339.453,-108.04 329.575,-111.871 334.12,-117.195"/>
</g>
<!-- Do Path&#45;Pipe? -->
<g id="node5" class="node"><title>Do Path&#45;Pipe?</title>
<ellipse fill="gray" stroke="black" cx="40.4145" cy="-18" rx="40.3292" ry="18"/>
<text text-anchor="middle" x="40.4145" y="-15.8" font-family="Times New Roman,serif" font-size="9.00">Do Path&#45;Pipe?</text>
</g>
<!-- Check PP&#45;&gt;Do Path&#45;Pipe? -->
<g id="edge4" class="edge"><title>Check PP&#45;&gt;Do Path&#45;Pipe?</title>
<path fill="none" stroke="black" d="M167.237,-76.6465C142.133,-65.2359 104.649,-48.1974 76.9371,-35.6012"/>
<polygon fill="black" stroke="black" points="78.131,-32.2993 67.579,-31.3475 75.2344,-38.6719 78.131,-32.2993"/>
</g>
<!-- Paths and Pipes -->
<g id="node6" class="node"><title>Paths and Pipes</title>
<ellipse fill="gray" stroke="black" cx="141.415" cy="-18" rx="42.949" ry="18"/>
<text text-anchor="middle" x="141.415" y="-15.8" font-family="Times New Roman,serif" font-size="9.00">Paths and Pipes</text>
</g>
<!-- Check PP&#45;&gt;Paths and Pipes -->
<g id="edge5" class="edge"><title>Check PP&#45;&gt;Paths and Pipes</title>
<path fill="none" stroke="black" d="M181.313,-71.6966C174.93,-63.2653 167.138,-52.9748 160.14,-43.7323"/>
<polygon fill="black" stroke="black" points="162.827,-41.4822 154,-35.6223 157.246,-45.7077 162.827,-41.4822"/>
</g>
<!-- Paths and Pipes* -->
<g id="node7" class="node"><title>Paths and Pipes*</title>
<ellipse fill="gray" stroke="black" cx="247.415" cy="-18" rx="45.7216" ry="18"/>
<text text-anchor="middle" x="247.415" y="-15.8" font-family="Times New Roman,serif" font-size="9.00">Paths and Pipes*</text>
</g>
<!-- Check PP&#45;&gt;Paths and Pipes* -->
<g id="edge6" class="edge"><title>Check PP&#45;&gt;Paths and Pipes*</title>
<path fill="none" stroke="black" d="M207.516,-71.6966C213.899,-63.2653 221.691,-52.9748 228.689,-43.7323"/>
<polygon fill="black" stroke="black" points="231.583,-45.7077 234.829,-35.6223 226.002,-41.4822 231.583,-45.7077"/>
</g>
<!-- Stairs and Enemies -->
<g id="node9" class="node"><title>Stairs and Enemies</title>
<ellipse fill="gray" stroke="black" cx="359.415" cy="-18" rx="48.4948" ry="18"/>
<text text-anchor="middle" x="359.415" y="-15.8" font-family="Times New Roman,serif" font-size="9.00">Stairs and Enemies</text>
</g>
<!-- SE&#45;&gt;Stairs and Enemies -->
<g id="edge8" class="edge"><title>SE&#45;&gt;Stairs and Enemies</title>
<path fill="none" stroke="black" d="M359.415,-71.6966C359.415,-63.9827 359.415,-54.7125 359.415,-46.1124"/>
<polygon fill="black" stroke="black" points="362.915,-46.1043 359.415,-36.1043 355.915,-46.1044 362.915,-46.1043"/>
</g>
<!-- Stairs and Enemies* -->
<g id="node10" class="node"><title>Stairs and Enemies*</title>
<ellipse fill="gray" stroke="black" cx="477.415" cy="-18" rx="51.2686" ry="18"/>
<text text-anchor="middle" x="477.415" y="-15.8" font-family="Times New Roman,serif" font-size="9.00">Stairs and Enemies*</text>
</g>
<!-- SE&#45;&gt;Stairs and Enemies* -->
<g id="edge9" class="edge"><title>SE&#45;&gt;Stairs and Enemies*</title>
<path fill="none" stroke="black" d="M386.486,-72.9406C403.405,-62.9038 425.337,-49.8933 443.422,-39.1648"/>
<polygon fill="black" stroke="black" points="445.667,-41.9026 452.482,-33.7904 442.096,-35.8823 445.667,-41.9026"/>
</g>
</g>
</svg>
