<?xml version="1.0" encoding="UTF-8" standalone="no"?>
<!DOCTYPE svg PUBLIC "-//W3C//DTD SVG 1.1//EN"
 "http://www.w3.org/Graphics/SVG/1.1/DTD/svg11.dtd">
<!-- Generated by graphviz version 2.38.0 (20140413.2041)
 -->
<!-- Title: pastafarianism Pages: 1 -->
<svg width="739pt" height="404pt"
 viewBox="0.00 0.00 739.15 404.00" xmlns="http://www.w3.org/2000/svg" xmlns:xlink="http://www.w3.org/1999/xlink">
<g id="graph0" class="graph" transform="scale(1 1) rotate(0) translate(4 400)">
<title>pastafarianism</title>
<polygon fill="white" stroke="none" points="-4,4 -4,-400 735.147,-400 735.147,4 -4,4"/>
<!-- Level -->
<g id="node1" class="node"><title>Level</title>
<polygon fill="orange" stroke="black" points="389.147,-396 335.147,-396 335.147,-360 389.147,-360 389.147,-396"/>
<text text-anchor="middle" x="362.147" y="-375.8" font-family="Times New Roman,serif" font-size="9.00">Level</text>
</g>
<!-- Init Horizontal -->
<g id="node2" class="node"><title>Init Horizontal</title>
<ellipse fill="gray" stroke="black" cx="118.147" cy="-306" rx="40.9837" ry="18"/>
<text text-anchor="middle" x="118.147" y="-303.8" font-family="Times New Roman,serif" font-size="9.00">Init Horizontal</text>
</g>
<!-- Level&#45;&gt;Init Horizontal -->
<g id="edge1" class="edge"><title>Level&#45;&gt;Init Horizontal</title>
<path fill="none" stroke="black" d="M335.006,-370.144C297.356,-360.506 227.236,-342.098 168.147,-324 165.174,-323.09 162.112,-322.122 159.036,-321.129"/>
<polygon fill="black" stroke="black" points="159.85,-317.712 149.257,-317.905 157.659,-324.36 159.85,-317.712"/>
</g>
<!-- Horizontal or Vertical -->
<g id="node3" class="node"><title>Horizontal or Vertical</title>
<polygon fill="cyan" stroke="black" points="295.382,-298.544 295.382,-313.456 260.683,-324 211.611,-324 176.912,-313.456 176.912,-298.544 211.611,-288 260.683,-288 295.382,-298.544"/>
<text text-anchor="middle" x="236.147" y="-303.8" font-family="Times New Roman,serif" font-size="9.00">Horizontal or Vertical</text>
</g>
<!-- Level&#45;&gt;Horizontal or Vertical -->
<g id="edge2" class="edge"><title>Level&#45;&gt;Horizontal or Vertical</title>
<path fill="none" stroke="black" d="M335.116,-361.983C317.182,-352.02 293.4,-338.807 273.643,-327.831"/>
<polygon fill="black" stroke="black" points="275.326,-324.762 264.884,-322.966 271.926,-330.882 275.326,-324.762"/>
</g>
<!-- Middle Horizontal -->
<g id="node18" class="node"><title>Middle Horizontal</title>
<ellipse fill="gray" stroke="black" cx="362.147" cy="-306" rx="48.4948" ry="18"/>
<text text-anchor="middle" x="362.147" y="-303.8" font-family="Times New Roman,serif" font-size="9.00">Middle Horizontal</text>
</g>
<!-- Level&#45;&gt;Middle Horizontal -->
<g id="edge17" class="edge"><title>Level&#45;&gt;Middle Horizontal</title>
<path fill="none" stroke="black" d="M362.147,-359.697C362.147,-351.983 362.147,-342.712 362.147,-334.112"/>
<polygon fill="black" stroke="black" points="365.647,-334.104 362.147,-324.104 358.647,-334.104 365.647,-334.104"/>
</g>
<!-- Vertical* -->
<g id="node19" class="node"><title>Vertical*</title>
<polygon fill="cyan" stroke="black" points="489.889,-298.544 489.889,-313.456 471.881,-324 446.413,-324 428.404,-313.456 428.404,-298.544 446.413,-288 471.881,-288 489.889,-298.544"/>
<text text-anchor="middle" x="459.147" y="-303.8" font-family="Times New Roman,serif" font-size="9.00">Vertical*</text>
</g>
<!-- Level&#45;&gt;Vertical* -->
<g id="edge18" class="edge"><title>Level&#45;&gt;Vertical*</title>
<path fill="none" stroke="black" d="M386.124,-359.697C399.969,-349.705 417.432,-337.103 431.809,-326.728"/>
<polygon fill="black" stroke="black" points="434.241,-329.289 440.302,-320.599 430.145,-323.613 434.241,-329.289"/>
</g>
<!-- Final Horizontal -->
<g id="node30" class="node"><title>Final Horizontal</title>
<ellipse fill="gray" stroke="black" cx="551.147" cy="-306" rx="43.7576" ry="18"/>
<text text-anchor="middle" x="551.147" y="-303.8" font-family="Times New Roman,serif" font-size="9.00">Final Horizontal</text>
</g>
<!-- Level&#45;&gt;Final Horizontal -->
<g id="edge29" class="edge"><title>Level&#45;&gt;Final Horizontal</title>
<path fill="none" stroke="black" d="M389.226,-366.971C420.895,-355.241 473.645,-335.704 510.295,-322.13"/>
<polygon fill="black" stroke="black" points="511.546,-325.399 519.708,-318.644 509.115,-318.835 511.546,-325.399"/>
</g>
<!-- Check -->
<g id="node4" class="node"><title>Check</title>
<polygon fill="orange" stroke="black" points="161.147,-252 107.147,-252 107.147,-216 161.147,-216 161.147,-252"/>
<text text-anchor="middle" x="134.147" y="-231.8" font-family="Times New Roman,serif" font-size="9.00">Check</text>
</g>
<!-- Horizontal or Vertical&#45;&gt;Check -->
<g id="edge3" class="edge"><title>Horizontal or Vertical&#45;&gt;Check</title>
<path fill="none" stroke="black" d="M211.195,-287.876C198.105,-278.893 181.886,-267.763 167.711,-258.034"/>
<polygon fill="black" stroke="black" points="169.42,-254.962 159.194,-252.19 165.459,-260.734 169.42,-254.962"/>
</g>
<!-- Vertical -->
<g id="node7" class="node"><title>Vertical</title>
<polygon fill="cyan" stroke="black" points="263.639,-226.544 263.639,-241.456 247.535,-252 224.759,-252 208.654,-241.456 208.654,-226.544 224.759,-216 247.535,-216 263.639,-226.544"/>
<text text-anchor="middle" x="236.147" y="-231.8" font-family="Times New Roman,serif" font-size="9.00">Vertical</text>
</g>
<!-- Horizontal or Vertical&#45;&gt;Vertical -->
<g id="edge6" class="edge"><title>Horizontal or Vertical&#45;&gt;Vertical</title>
<path fill="none" stroke="black" d="M236.147,-287.697C236.147,-279.983 236.147,-270.712 236.147,-262.112"/>
<polygon fill="black" stroke="black" points="239.647,-262.104 236.147,-252.104 232.647,-262.104 239.647,-262.104"/>
</g>
<!-- Do Horizontal? -->
<g id="node5" class="node"><title>Do Horizontal?</title>
<ellipse fill="gray" stroke="black" cx="42.1466" cy="-162" rx="42.2937" ry="18"/>
<text text-anchor="middle" x="42.1466" y="-159.8" font-family="Times New Roman,serif" font-size="9.00">Do Horizontal?</text>
</g>
<!-- Check&#45;&gt;Do Horizontal? -->
<g id="edge4" class="edge"><title>Check&#45;&gt;Do Horizontal?</title>
<path fill="none" stroke="black" d="M111.405,-215.697C98.9213,-206.198 83.3362,-194.34 70.1132,-184.279"/>
<polygon fill="black" stroke="black" points="71.8988,-181.24 61.8211,-177.97 67.6601,-186.81 71.8988,-181.24"/>
</g>
<!-- Horizontal -->
<g id="node6" class="node"><title>Horizontal</title>
<ellipse fill="gray" stroke="black" cx="134.147" cy="-162" rx="32.1641" ry="18"/>
<text text-anchor="middle" x="134.147" y="-159.8" font-family="Times New Roman,serif" font-size="9.00">Horizontal</text>
</g>
<!-- Check&#45;&gt;Horizontal -->
<g id="edge5" class="edge"><title>Check&#45;&gt;Horizontal</title>
<path fill="none" stroke="black" d="M134.147,-215.697C134.147,-207.983 134.147,-198.712 134.147,-190.112"/>
<polygon fill="black" stroke="black" points="137.647,-190.104 134.147,-180.104 130.647,-190.104 137.647,-190.104"/>
</g>
<!-- Check* -->
<g id="node8" class="node"><title>Check*</title>
<polygon fill="orange" stroke="black" points="238.147,-180 184.147,-180 184.147,-144 238.147,-144 238.147,-180"/>
<text text-anchor="middle" x="211.147" y="-159.8" font-family="Times New Roman,serif" font-size="9.00">Check*</text>
</g>
<!-- Vertical&#45;&gt;Check* -->
<g id="edge7" class="edge"><title>Vertical&#45;&gt;Check*</title>
<path fill="none" stroke="black" d="M229.967,-215.697C227.151,-207.813 223.755,-198.304 220.627,-189.546"/>
<polygon fill="black" stroke="black" points="223.915,-188.345 217.255,-180.104 217.323,-190.699 223.915,-188.345"/>
</g>
<!-- Downward -->
<g id="node14" class="node"><title>Downward</title>
<polygon fill="orange" stroke="black" points="321.647,-180 264.647,-180 264.647,-144 321.647,-144 321.647,-180"/>
<text text-anchor="middle" x="293.147" y="-159.8" font-family="Times New Roman,serif" font-size="9.00">Downward</text>
</g>
<!-- Vertical&#45;&gt;Downward -->
<g id="edge13" class="edge"><title>Vertical&#45;&gt;Downward</title>
<path fill="none" stroke="black" d="M249.367,-216.765C256.285,-208.268 264.91,-197.677 272.67,-188.146"/>
<polygon fill="black" stroke="black" points="275.603,-190.088 279.203,-180.124 270.174,-185.668 275.603,-190.088"/>
</g>
<!-- Do Upward? -->
<g id="node9" class="node"><title>Do Upward?</title>
<ellipse fill="gray" stroke="black" cx="71.1466" cy="-90" rx="36.9009" ry="18"/>
<text text-anchor="middle" x="71.1466" y="-87.8" font-family="Times New Roman,serif" font-size="9.00">Do Upward?</text>
</g>
<!-- Check*&#45;&gt;Do Upward? -->
<g id="edge8" class="edge"><title>Check*&#45;&gt;Do Upward?</title>
<path fill="none" stroke="black" d="M183.821,-147.337C161.341,-136.097 129.366,-120.11 105.217,-108.035"/>
<polygon fill="black" stroke="black" points="106.564,-104.796 96.0547,-103.454 103.434,-111.057 106.564,-104.796"/>
</g>
<!-- Upward -->
<g id="node10" class="node"><title>Upward</title>
<polygon fill="orange" stroke="black" points="180.147,-108 126.147,-108 126.147,-72 180.147,-72 180.147,-108"/>
<text text-anchor="middle" x="153.147" y="-87.8" font-family="Times New Roman,serif" font-size="9.00">Upward</text>
</g>
<!-- Check*&#45;&gt;Upward -->
<g id="edge9" class="edge"><title>Check*&#45;&gt;Upward</title>
<path fill="none" stroke="black" d="M196.809,-143.697C189.856,-135.305 181.376,-125.07 173.746,-115.861"/>
<polygon fill="black" stroke="black" points="176.394,-113.571 167.319,-108.104 171.004,-118.038 176.394,-113.571"/>
</g>
<!-- UL -->
<g id="node11" class="node"><title>UL</title>
<ellipse fill="gray" stroke="black" cx="81.1466" cy="-18" rx="27" ry="18"/>
<text text-anchor="middle" x="81.1466" y="-15.8" font-family="Times New Roman,serif" font-size="9.00">UL</text>
</g>
<!-- Upward&#45;&gt;UL -->
<g id="edge10" class="edge"><title>Upward&#45;&gt;UL</title>
<path fill="none" stroke="black" d="M135.349,-71.6966C125.659,-62.276 113.582,-50.5341 103.288,-40.5265"/>
<polygon fill="black" stroke="black" points="105.443,-37.7403 95.8335,-33.279 100.564,-42.7593 105.443,-37.7403"/>
</g>
<!-- UD -->
<g id="node12" class="node"><title>UD</title>
<ellipse fill="gray" stroke="black" cx="153.147" cy="-18" rx="27" ry="18"/>
<text text-anchor="middle" x="153.147" y="-15.8" font-family="Times New Roman,serif" font-size="9.00">UD</text>
</g>
<!-- Upward&#45;&gt;UD -->
<g id="edge11" class="edge"><title>Upward&#45;&gt;UD</title>
<path fill="none" stroke="black" d="M153.147,-71.6966C153.147,-63.9827 153.147,-54.7125 153.147,-46.1124"/>
<polygon fill="black" stroke="black" points="156.647,-46.1043 153.147,-36.1043 149.647,-46.1044 156.647,-46.1043"/>
</g>
<!-- DR -->
<g id="node13" class="node"><title>DR</title>
<ellipse fill="gray" stroke="black" cx="225.147" cy="-18" rx="27" ry="18"/>
<text text-anchor="middle" x="225.147" y="-15.8" font-family="Times New Roman,serif" font-size="9.00">DR</text>
</g>
<!-- Upward&#45;&gt;DR -->
<g id="edge12" class="edge"><title>Upward&#45;&gt;DR</title>
<path fill="none" stroke="black" d="M170.944,-71.6966C180.634,-62.276 192.712,-50.5341 203.005,-40.5265"/>
<polygon fill="black" stroke="black" points="205.729,-42.7593 210.46,-33.279 200.85,-37.7403 205.729,-42.7593"/>
</g>
<!-- DL -->
<g id="node15" class="node"><title>DL</title>
<ellipse fill="gray" stroke="black" cx="225.147" cy="-90" rx="27" ry="18"/>
<text text-anchor="middle" x="225.147" y="-87.8" font-family="Times New Roman,serif" font-size="9.00">DL</text>
</g>
<!-- Downward&#45;&gt;DL -->
<g id="edge14" class="edge"><title>Downward&#45;&gt;DL</title>
<path fill="none" stroke="black" d="M276.338,-143.697C267.311,-134.405 256.092,-122.855 246.459,-112.939"/>
<polygon fill="black" stroke="black" points="248.942,-110.472 239.464,-105.738 243.921,-115.35 248.942,-110.472"/>
</g>
<!-- UD* -->
<g id="node16" class="node"><title>UD*</title>
<ellipse fill="gray" stroke="black" cx="297.147" cy="-90" rx="27" ry="18"/>
<text text-anchor="middle" x="297.147" y="-87.8" font-family="Times New Roman,serif" font-size="9.00">UD*</text>
</g>
<!-- Downward&#45;&gt;UD* -->
<g id="edge15" class="edge"><title>Downward&#45;&gt;UD*</title>
<path fill="none" stroke="black" d="M294.135,-143.697C294.576,-135.983 295.106,-126.712 295.597,-118.112"/>
<polygon fill="black" stroke="black" points="299.093,-118.288 296.169,-108.104 292.104,-117.888 299.093,-118.288"/>
</g>
<!-- UR -->
<g id="node17" class="node"><title>UR</title>
<ellipse fill="gray" stroke="black" cx="369.147" cy="-90" rx="27" ry="18"/>
<text text-anchor="middle" x="369.147" y="-87.8" font-family="Times New Roman,serif" font-size="9.00">UR</text>
</g>
<!-- Downward&#45;&gt;UR -->
<g id="edge16" class="edge"><title>Downward&#45;&gt;UR</title>
<path fill="none" stroke="black" d="M311.933,-143.697C322.262,-134.184 335.16,-122.304 346.094,-112.233"/>
<polygon fill="black" stroke="black" points="348.659,-114.628 353.644,-105.279 343.917,-109.479 348.659,-114.628"/>
</g>
<!-- Check** -->
<g id="node20" class="node"><title>Check**</title>
<polygon fill="orange" stroke="black" points="486.147,-252 432.147,-252 432.147,-216 486.147,-216 486.147,-252"/>
<text text-anchor="middle" x="459.147" y="-231.8" font-family="Times New Roman,serif" font-size="9.00">Check**</text>
</g>
<!-- Vertical*&#45;&gt;Check** -->
<g id="edge19" class="edge"><title>Vertical*&#45;&gt;Check**</title>
<path fill="none" stroke="black" d="M459.147,-287.697C459.147,-279.983 459.147,-270.712 459.147,-262.112"/>
<polygon fill="black" stroke="black" points="462.647,-262.104 459.147,-252.104 455.647,-262.104 462.647,-262.104"/>
</g>
<!-- Downward* -->
<g id="node26" class="node"><title>Downward*</title>
<polygon fill="orange" stroke="black" points="627.147,-252 565.147,-252 565.147,-216 627.147,-216 627.147,-252"/>
<text text-anchor="middle" x="596.147" y="-231.8" font-family="Times New Roman,serif" font-size="9.00">Downward*</text>
</g>
<!-- Vertical*&#45;&gt;Downward* -->
<g id="edge25" class="edge"><title>Vertical*&#45;&gt;Downward*</title>
<path fill="none" stroke="black" d="M481.463,-293.597C501.633,-283.292 531.802,-267.877 556.135,-255.444"/>
<polygon fill="black" stroke="black" points="557.83,-258.508 565.142,-250.842 554.645,-252.275 557.83,-258.508"/>
</g>
<!-- Do Upward?* -->
<g id="node21" class="node"><title>Do Upward?*</title>
<ellipse fill="gray" stroke="black" cx="404.147" cy="-162" rx="39.0211" ry="18"/>
<text text-anchor="middle" x="404.147" y="-159.8" font-family="Times New Roman,serif" font-size="9.00">Do Upward?*</text>
</g>
<!-- Check**&#45;&gt;Do Upward?* -->
<g id="edge20" class="edge"><title>Check**&#45;&gt;Do Upward?*</title>
<path fill="none" stroke="black" d="M445.551,-215.697C438.76,-207.054 430.435,-196.458 423.035,-187.039"/>
<polygon fill="black" stroke="black" points="425.762,-184.845 416.832,-179.145 420.258,-189.17 425.762,-184.845"/>
</g>
<!-- Upward* -->
<g id="node22" class="node"><title>Upward*</title>
<polygon fill="orange" stroke="black" points="515.147,-180 461.147,-180 461.147,-144 515.147,-144 515.147,-180"/>
<text text-anchor="middle" x="488.147" y="-159.8" font-family="Times New Roman,serif" font-size="9.00">Upward*</text>
</g>
<!-- Check**&#45;&gt;Upward* -->
<g id="edge21" class="edge"><title>Check**&#45;&gt;Upward*</title>
<path fill="none" stroke="black" d="M466.315,-215.697C469.581,-207.813 473.521,-198.304 477.149,-189.546"/>
<polygon fill="black" stroke="black" points="480.467,-190.683 481.06,-180.104 474,-188.003 480.467,-190.683"/>
</g>
<!-- UL* -->
<g id="node23" class="node"><title>UL*</title>
<ellipse fill="gray" stroke="black" cx="441.147" cy="-90" rx="27" ry="18"/>
<text text-anchor="middle" x="441.147" y="-87.8" font-family="Times New Roman,serif" font-size="9.00">UL*</text>
</g>
<!-- Upward*&#45;&gt;UL* -->
<g id="edge22" class="edge"><title>Upward*&#45;&gt;UL*</title>
<path fill="none" stroke="black" d="M476.529,-143.697C470.761,-135.106 463.696,-124.585 457.401,-115.209"/>
<polygon fill="black" stroke="black" points="460.149,-113.022 451.669,-106.671 454.337,-116.924 460.149,-113.022"/>
</g>
<!-- UD** -->
<g id="node24" class="node"><title>UD**</title>
<ellipse fill="gray" stroke="black" cx="513.147" cy="-90" rx="27" ry="18"/>
<text text-anchor="middle" x="513.147" y="-87.8" font-family="Times New Roman,serif" font-size="9.00">UD**</text>
</g>
<!-- Upward*&#45;&gt;UD** -->
<g id="edge23" class="edge"><title>Upward*&#45;&gt;UD**</title>
<path fill="none" stroke="black" d="M494.326,-143.697C497.184,-135.696 500.639,-126.02 503.806,-117.155"/>
<polygon fill="black" stroke="black" points="507.143,-118.217 507.21,-107.622 500.551,-115.863 507.143,-118.217"/>
</g>
<!-- DR* -->
<g id="node25" class="node"><title>DR*</title>
<ellipse fill="gray" stroke="black" cx="585.147" cy="-90" rx="27" ry="18"/>
<text text-anchor="middle" x="585.147" y="-87.8" font-family="Times New Roman,serif" font-size="9.00">DR*</text>
</g>
<!-- Upward*&#45;&gt;DR* -->
<g id="edge24" class="edge"><title>Upward*&#45;&gt;DR*</title>
<path fill="none" stroke="black" d="M512.124,-143.697C526.475,-133.34 544.713,-120.179 559.372,-109.6"/>
<polygon fill="black" stroke="black" points="561.472,-112.401 567.533,-103.711 557.376,-106.724 561.472,-112.401"/>
</g>
<!-- DL* -->
<g id="node27" class="node"><title>DL*</title>
<ellipse fill="gray" stroke="black" cx="560.147" cy="-162" rx="27" ry="18"/>
<text text-anchor="middle" x="560.147" y="-159.8" font-family="Times New Roman,serif" font-size="9.00">DL*</text>
</g>
<!-- Downward*&#45;&gt;DL* -->
<g id="edge26" class="edge"><title>Downward*&#45;&gt;DL*</title>
<path fill="none" stroke="black" d="M587.248,-215.697C582.983,-207.403 577.792,-197.311 573.1,-188.187"/>
<polygon fill="black" stroke="black" points="576.136,-186.437 568.449,-179.145 569.911,-189.638 576.136,-186.437"/>
</g>
<!-- UD*** -->
<g id="node28" class="node"><title>UD***</title>
<ellipse fill="gray" stroke="black" cx="632.147" cy="-162" rx="27" ry="18"/>
<text text-anchor="middle" x="632.147" y="-159.8" font-family="Times New Roman,serif" font-size="9.00">UD***</text>
</g>
<!-- Downward*&#45;&gt;UD*** -->
<g id="edge27" class="edge"><title>Downward*&#45;&gt;UD***</title>
<path fill="none" stroke="black" d="M605.045,-215.697C609.311,-207.403 614.501,-197.311 619.193,-188.187"/>
<polygon fill="black" stroke="black" points="622.383,-189.638 623.844,-179.145 616.158,-186.437 622.383,-189.638"/>
</g>
<!-- UR* -->
<g id="node29" class="node"><title>UR*</title>
<ellipse fill="gray" stroke="black" cx="704.147" cy="-162" rx="27" ry="18"/>
<text text-anchor="middle" x="704.147" y="-159.8" font-family="Times New Roman,serif" font-size="9.00">UR*</text>
</g>
<!-- Downward*&#45;&gt;UR* -->
<g id="edge28" class="edge"><title>Downward*&#45;&gt;UR*</title>
<path fill="none" stroke="black" d="M622.566,-215.876C639.006,-205.221 660.107,-191.544 676.73,-180.77"/>
<polygon fill="black" stroke="black" points="678.958,-183.497 685.446,-175.121 675.151,-177.623 678.958,-183.497"/>
</g>
</g>
</svg>
