<?xml version="1.0" encoding="UTF-8" standalone="no"?>
<!DOCTYPE svg PUBLIC "-//W3C//DTD SVG 1.1//EN"
 "http://www.w3.org/Graphics/SVG/1.1/DTD/svg11.dtd">
<!-- Generated by graphviz version 2.38.0 (20140413.2041)
 -->
<!-- Title: pastafarianism Pages: 1 -->
<svg width="900pt" height="260pt"
 viewBox="0.00 0.00 899.55 260.00" xmlns="http://www.w3.org/2000/svg" xmlns:xlink="http://www.w3.org/1999/xlink">
<g id="graph0" class="graph" transform="scale(1 1) rotate(0) translate(4 256)">
<title>pastafarianism</title>
<polygon fill="white" stroke="none" points="-4,4 -4,-256 895.55,-256 895.55,4 -4,4"/>
<!-- Mario 1&#45;1 -->
<g id="node1" class="node"><title>Mario 1&#45;1</title>
<polygon fill="orange" stroke="black" points="380.415,-252 326.415,-252 326.415,-216 380.415,-216 380.415,-252"/>
<text text-anchor="middle" x="353.415" y="-231.8" font-family="Times New Roman,serif" font-size="9.00">Mario 1&#45;1</text>
</g>
<!-- Initial and Pipes -->
<g id="node2" class="node"><title>Initial and Pipes</title>
<polygon fill="orange" stroke="black" points="168.915,-180 93.9145,-180 93.9145,-144 168.915,-144 168.915,-180"/>
<text text-anchor="middle" x="131.415" y="-159.8" font-family="Times New Roman,serif" font-size="9.00">Initial and Pipes</text>
</g>
<!-- Mario 1&#45;1&#45;&gt;Initial and Pipes -->
<g id="edge1" class="edge"><title>Mario 1&#45;1&#45;&gt;Initial and Pipes</title>
<path fill="none" stroke="black" d="M326.193,-224.417C289.595,-212.877 223.947,-192.177 179.067,-178.026"/>
<polygon fill="black" stroke="black" points="179.852,-174.603 169.262,-174.934 177.747,-181.279 179.852,-174.603"/>
</g>
<!-- Multiple Paths -->
<g id="node8" class="node"><title>Multiple Paths</title>
<polygon fill="orange" stroke="black" points="388.915,-180 317.915,-180 317.915,-144 388.915,-144 388.915,-180"/>
<text text-anchor="middle" x="353.415" y="-159.8" font-family="Times New Roman,serif" font-size="9.00">Multiple Paths</text>
</g>
<!-- Mario 1&#45;1&#45;&gt;Multiple Paths -->
<g id="edge7" class="edge"><title>Mario 1&#45;1&#45;&gt;Multiple Paths</title>
<path fill="none" stroke="black" d="M353.415,-215.697C353.415,-207.983 353.415,-198.712 353.415,-190.112"/>
<polygon fill="black" stroke="black" points="356.915,-190.104 353.415,-180.104 349.915,-190.104 356.915,-190.104"/>
</g>
<!-- Ending Stairs -->
<g id="node13" class="node"><title>Ending Stairs</title>
<polygon fill="orange" stroke="black" points="705.415,-180 641.415,-180 641.415,-144 705.415,-144 705.415,-180"/>
<text text-anchor="middle" x="673.415" y="-159.8" font-family="Times New Roman,serif" font-size="9.00">Ending Stairs</text>
</g>
<!-- Mario 1&#45;1&#45;&gt;Ending Stairs -->
<g id="edge12" class="edge"><title>Mario 1&#45;1&#45;&gt;Ending Stairs</title>
<path fill="none" stroke="black" d="M380.422,-227.092C436.174,-214.896 564.361,-186.856 631.173,-172.24"/>
<polygon fill="black" stroke="black" points="631.938,-175.656 640.959,-170.1 630.442,-168.818 631.938,-175.656"/>
</g>
<!-- Initial Segment -->
<g id="node3" class="node"><title>Initial Segment</title>
<ellipse fill="gray" stroke="black" cx="40.4145" cy="-90" rx="40.3292" ry="18"/>
<text text-anchor="middle" x="40.4145" y="-87.8" font-family="Times New Roman,serif" font-size="9.00">Initial Segment</text>
</g>
<!-- Initial and Pipes&#45;&gt;Initial Segment -->
<g id="edge2" class="edge"><title>Initial and Pipes&#45;&gt;Initial Segment</title>
<path fill="none" stroke="black" d="M108.92,-143.697C96.5721,-134.198 81.1564,-122.34 68.0771,-112.279"/>
<polygon fill="black" stroke="black" points="69.9355,-109.293 59.8752,-105.97 65.6675,-114.841 69.9355,-109.293"/>
</g>
<!-- Pipes Section -->
<g id="node4" class="node"><title>Pipes Section</title>
<polygon fill="orange" stroke="black" points="163.915,-108 98.9145,-108 98.9145,-72 163.915,-72 163.915,-108"/>
<text text-anchor="middle" x="131.415" y="-87.8" font-family="Times New Roman,serif" font-size="9.00">Pipes Section</text>
</g>
<!-- Initial and Pipes&#45;&gt;Pipes Section -->
<g id="edge3" class="edge"><title>Initial and Pipes&#45;&gt;Pipes Section</title>
<path fill="none" stroke="black" d="M131.415,-143.697C131.415,-135.983 131.415,-126.712 131.415,-118.112"/>
<polygon fill="black" stroke="black" points="134.915,-118.104 131.415,-108.104 127.915,-118.104 134.915,-118.104"/>
</g>
<!-- Pipes 1 -->
<g id="node5" class="node"><title>Pipes 1</title>
<ellipse fill="gray" stroke="black" cx="59.4145" cy="-18" rx="27" ry="18"/>
<text text-anchor="middle" x="59.4145" y="-15.8" font-family="Times New Roman,serif" font-size="9.00">Pipes 1</text>
</g>
<!-- Pipes Section&#45;&gt;Pipes 1 -->
<g id="edge4" class="edge"><title>Pipes Section&#45;&gt;Pipes 1</title>
<path fill="none" stroke="black" d="M113.617,-71.6966C103.927,-62.276 91.8496,-50.5341 81.5561,-40.5265"/>
<polygon fill="black" stroke="black" points="83.7112,-37.7403 74.1014,-33.279 78.8316,-42.7593 83.7112,-37.7403"/>
</g>
<!-- Pipes 2 -->
<g id="node6" class="node"><title>Pipes 2</title>
<ellipse fill="gray" stroke="black" cx="131.415" cy="-18" rx="27" ry="18"/>
<text text-anchor="middle" x="131.415" y="-15.8" font-family="Times New Roman,serif" font-size="9.00">Pipes 2</text>
</g>
<!-- Pipes Section&#45;&gt;Pipes 2 -->
<g id="edge5" class="edge"><title>Pipes Section&#45;&gt;Pipes 2</title>
<path fill="none" stroke="black" d="M131.415,-71.6966C131.415,-63.9827 131.415,-54.7125 131.415,-46.1124"/>
<polygon fill="black" stroke="black" points="134.915,-46.1043 131.415,-36.1043 127.915,-46.1044 134.915,-46.1043"/>
</g>
<!-- Pipes 3 -->
<g id="node7" class="node"><title>Pipes 3</title>
<ellipse fill="gray" stroke="black" cx="203.415" cy="-18" rx="27" ry="18"/>
<text text-anchor="middle" x="203.415" y="-15.8" font-family="Times New Roman,serif" font-size="9.00">Pipes 3</text>
</g>
<!-- Pipes Section&#45;&gt;Pipes 3 -->
<g id="edge6" class="edge"><title>Pipes Section&#45;&gt;Pipes 3</title>
<path fill="none" stroke="black" d="M149.212,-71.6966C158.902,-62.276 170.979,-50.5341 181.273,-40.5265"/>
<polygon fill="black" stroke="black" points="183.997,-42.7593 188.728,-33.279 179.118,-37.7403 183.997,-42.7593"/>
</g>
<!-- Risk Reward -->
<g id="node9" class="node"><title>Risk Reward</title>
<ellipse fill="gray" stroke="black" cx="218.415" cy="-90" rx="36.2466" ry="18"/>
<text text-anchor="middle" x="218.415" y="-87.8" font-family="Times New Roman,serif" font-size="9.00">Risk Reward</text>
</g>
<!-- Multiple Paths&#45;&gt;Risk Reward -->
<g id="edge8" class="edge"><title>Multiple Paths&#45;&gt;Risk Reward</title>
<path fill="none" stroke="black" d="M320.39,-143.876C299.541,-133.065 272.693,-119.144 251.779,-108.3"/>
<polygon fill="black" stroke="black" points="253.119,-105.052 242.63,-103.556 249.897,-111.267 253.119,-105.052"/>
</g>
<!-- Enemy Horde -->
<g id="node10" class="node"><title>Enemy Horde</title>
<ellipse fill="gray" stroke="black" cx="311.415" cy="-90" rx="38.8658" ry="18"/>
<text text-anchor="middle" x="311.415" y="-87.8" font-family="Times New Roman,serif" font-size="9.00">Enemy Horde</text>
</g>
<!-- Multiple Paths&#45;&gt;Enemy Horde -->
<g id="edge9" class="edge"><title>Multiple Paths&#45;&gt;Enemy Horde</title>
<path fill="none" stroke="black" d="M343.032,-143.697C338.077,-135.437 332.051,-125.394 326.594,-116.299"/>
<polygon fill="black" stroke="black" points="329.534,-114.396 321.388,-107.622 323.532,-117.998 329.534,-114.396"/>
</g>
<!-- Triangle -->
<g id="node11" class="node"><title>Triangle</title>
<ellipse fill="gray" stroke="black" cx="395.415" cy="-90" rx="27" ry="18"/>
<text text-anchor="middle" x="395.415" y="-87.8" font-family="Times New Roman,serif" font-size="9.00">Triangle</text>
</g>
<!-- Multiple Paths&#45;&gt;Triangle -->
<g id="edge10" class="edge"><title>Multiple Paths&#45;&gt;Triangle</title>
<path fill="none" stroke="black" d="M363.797,-143.697C368.825,-135.316 374.956,-125.098 380.475,-115.899"/>
<polygon fill="black" stroke="black" points="383.584,-117.52 385.728,-107.145 377.582,-113.919 383.584,-117.52"/>
</g>
<!-- Enemies 3&#45;Path -->
<g id="node12" class="node"><title>Enemies 3&#45;Path</title>
<ellipse fill="gray" stroke="black" cx="482.415" cy="-90" rx="42.2937" ry="18"/>
<text text-anchor="middle" x="482.415" y="-87.8" font-family="Times New Roman,serif" font-size="9.00">Enemies 3&#45;Path</text>
</g>
<!-- Multiple Paths&#45;&gt;Enemies 3&#45;Path -->
<g id="edge11" class="edge"><title>Multiple Paths&#45;&gt;Enemies 3&#45;Path</title>
<path fill="none" stroke="black" d="M384.971,-143.876C404.16,-133.463 428.667,-120.165 448.303,-109.51"/>
<polygon fill="black" stroke="black" points="450.105,-112.514 457.225,-104.669 446.766,-106.362 450.105,-112.514"/>
</g>
<!-- Stair Valley -->
<g id="node14" class="node"><title>Stair Valley</title>
<ellipse fill="gray" stroke="black" cx="576.415" cy="-90" rx="34.1275" ry="18"/>
<text text-anchor="middle" x="576.415" y="-87.8" font-family="Times New Roman,serif" font-size="9.00">Stair Valley</text>
</g>
<!-- Ending Stairs&#45;&gt;Stair Valley -->
<g id="edge13" class="edge"><title>Ending Stairs&#45;&gt;Stair Valley</title>
<path fill="none" stroke="black" d="M649.437,-143.697C635.778,-133.839 618.597,-121.441 604.333,-111.147"/>
<polygon fill="black" stroke="black" points="606.043,-108.065 595.885,-105.051 601.946,-113.741 606.043,-108.065"/>
</g>
<!-- Stair Valley Gap -->
<g id="node15" class="node"><title>Stair Valley Gap</title>
<ellipse fill="gray" stroke="black" cx="673.415" cy="-90" rx="44.412" ry="18"/>
<text text-anchor="middle" x="673.415" y="-87.8" font-family="Times New Roman,serif" font-size="9.00">Stair Valley Gap</text>
</g>
<!-- Ending Stairs&#45;&gt;Stair Valley Gap -->
<g id="edge14" class="edge"><title>Ending Stairs&#45;&gt;Stair Valley Gap</title>
<path fill="none" stroke="black" d="M673.415,-143.697C673.415,-135.983 673.415,-126.712 673.415,-118.112"/>
<polygon fill="black" stroke="black" points="676.915,-118.104 673.415,-108.104 669.915,-118.104 676.915,-118.104"/>
</g>
<!-- Enemies 2 Path -->
<g id="node16" class="node"><title>Enemies 2 Path</title>
<ellipse fill="gray" stroke="black" cx="777.415" cy="-90" rx="41.6386" ry="18"/>
<text text-anchor="middle" x="777.415" y="-87.8" font-family="Times New Roman,serif" font-size="9.00">Enemies 2 Path</text>
</g>
<!-- Ending Stairs&#45;&gt;Enemies 2 Path -->
<g id="edge15" class="edge"><title>Ending Stairs&#45;&gt;Enemies 2 Path</title>
<path fill="none" stroke="black" d="M698.856,-143.876C713.434,-134.064 731.819,-121.69 747.137,-111.379"/>
<polygon fill="black" stroke="black" points="749.409,-114.069 755.75,-105.582 745.5,-108.262 749.409,-114.069"/>
</g>
<!-- Stair Up -->
<g id="node17" class="node"><title>Stair Up</title>
<ellipse fill="gray" stroke="black" cx="864.415" cy="-90" rx="27.2716" ry="18"/>
<text text-anchor="middle" x="864.415" y="-87.8" font-family="Times New Roman,serif" font-size="9.00">Stair Up</text>
</g>
<!-- Ending Stairs&#45;&gt;Stair Up -->
<g id="edge16" class="edge"><title>Ending Stairs&#45;&gt;Stair Up</title>
<path fill="none" stroke="black" d="M705.561,-151.165C737.18,-141.222 786.643,-124.942 828.415,-108 830.24,-107.26 832.105,-106.473 833.979,-105.661"/>
<polygon fill="black" stroke="black" points="835.595,-108.771 843.269,-101.466 832.715,-102.391 835.595,-108.771"/>
</g>
</g>
</svg>
