<?xml version="1.0" encoding="UTF-8" standalone="no"?>
<!DOCTYPE svg PUBLIC "-//W3C//DTD SVG 1.1//EN"
 "http://www.w3.org/Graphics/SVG/1.1/DTD/svg11.dtd">
<!-- Generated by graphviz version 2.38.0 (20140413.2041)
 -->
<!-- Title: pastafarianism Pages: 1 -->
<svg width="1286pt" height="188pt"
 viewBox="0.00 0.00 1286.00 188.00" xmlns="http://www.w3.org/2000/svg" xmlns:xlink="http://www.w3.org/1999/xlink">
<g id="graph0" class="graph" transform="scale(1 1) rotate(0) translate(4 184)">
<title>pastafarianism</title>
<polygon fill="white" stroke="none" points="-4,4 -4,-184 1282,-184 1282,4 -4,4"/>
<!-- MM 1&#45;1 -->
<g id="node1" class="node"><title>MM 1&#45;1</title>
<polygon fill="orange" stroke="black" points="774,-180 720,-180 720,-144 774,-144 774,-180"/>
<text text-anchor="middle" x="747" y="-159.8" font-family="Times New Roman,serif" font-size="9.00">MM 1&#45;1</text>
</g>
<!-- Horizontal -->
<g id="node2" class="node"><title>Horizontal</title>
<polygon fill="orange" stroke="black" points="271,-108 215,-108 215,-72 271,-72 271,-108"/>
<text text-anchor="middle" x="243" y="-87.8" font-family="Times New Roman,serif" font-size="9.00">Horizontal</text>
</g>
<!-- MM 1&#45;1&#45;&gt;Horizontal -->
<g id="edge1" class="edge"><title>MM 1&#45;1&#45;&gt;Horizontal</title>
<path fill="none" stroke="black" d="M719.903,-157.236C635.764,-145.551 378.809,-109.862 281.181,-96.303"/>
<polygon fill="black" stroke="black" points="281.547,-92.8202 271.16,-94.9111 280.584,-99.7536 281.547,-92.8202"/>
</g>
<!-- Upward -->
<g id="node9" class="node"><title>Upward</title>
<polygon fill="orange" stroke="black" points="594,-108 540,-108 540,-72 594,-72 594,-108"/>
<text text-anchor="middle" x="567" y="-87.8" font-family="Times New Roman,serif" font-size="9.00">Upward</text>
</g>
<!-- MM 1&#45;1&#45;&gt;Upward -->
<g id="edge8" class="edge"><title>MM 1&#45;1&#45;&gt;Upward</title>
<path fill="none" stroke="black" d="M719.662,-150.369C688.691,-138.324 638.065,-118.636 603.679,-105.264"/>
<polygon fill="black" stroke="black" points="604.594,-101.865 594.006,-101.502 602.057,-108.389 604.594,-101.865"/>
</g>
<!-- Horizontal* -->
<g id="node13" class="node"><title>Horizontal*</title>
<polygon fill="orange" stroke="black" points="777,-108 717,-108 717,-72 777,-72 777,-108"/>
<text text-anchor="middle" x="747" y="-87.8" font-family="Times New Roman,serif" font-size="9.00">Horizontal*</text>
</g>
<!-- MM 1&#45;1&#45;&gt;Horizontal* -->
<g id="edge12" class="edge"><title>MM 1&#45;1&#45;&gt;Horizontal*</title>
<path fill="none" stroke="black" d="M747,-143.697C747,-135.983 747,-126.712 747,-118.112"/>
<polygon fill="black" stroke="black" points="750.5,-118.104 747,-108.104 743.5,-118.104 750.5,-118.104"/>
</g>
<!-- Upward* -->
<g id="node17" class="node"><title>Upward*</title>
<polygon fill="orange" stroke="black" points="954,-108 900,-108 900,-72 954,-72 954,-108"/>
<text text-anchor="middle" x="927" y="-87.8" font-family="Times New Roman,serif" font-size="9.00">Upward*</text>
</g>
<!-- MM 1&#45;1&#45;&gt;Upward* -->
<g id="edge16" class="edge"><title>MM 1&#45;1&#45;&gt;Upward*</title>
<path fill="none" stroke="black" d="M774.338,-150.369C805.309,-138.324 855.935,-118.636 890.321,-105.264"/>
<polygon fill="black" stroke="black" points="891.943,-108.389 899.994,-101.502 889.406,-101.865 891.943,-108.389"/>
</g>
<!-- Horizontal** -->
<g id="node21" class="node"><title>Horizontal**</title>
<polygon fill="orange" stroke="black" points="1175.5,-108 1110.5,-108 1110.5,-72 1175.5,-72 1175.5,-108"/>
<text text-anchor="middle" x="1143" y="-87.8" font-family="Times New Roman,serif" font-size="9.00">Horizontal**</text>
</g>
<!-- MM 1&#45;1&#45;&gt;Horizontal** -->
<g id="edge20" class="edge"><title>MM 1&#45;1&#45;&gt;Horizontal**</title>
<path fill="none" stroke="black" d="M774.219,-156.189C842.003,-144.207 1018.76,-112.962 1100.46,-98.52"/>
<polygon fill="black" stroke="black" points="1101.16,-101.949 1110.4,-96.7621 1099.95,-95.0563 1101.16,-101.949"/>
</g>
<!-- LR 1 -->
<g id="node3" class="node"><title>LR 1</title>
<ellipse fill="gray" stroke="black" cx="27" cy="-18" rx="27" ry="18"/>
<text text-anchor="middle" x="27" y="-15.8" font-family="Times New Roman,serif" font-size="9.00">LR 1</text>
</g>
<!-- Horizontal&#45;&gt;LR 1 -->
<g id="edge2" class="edge"><title>Horizontal&#45;&gt;LR 1</title>
<path fill="none" stroke="black" d="M214.804,-82.1439C178.987,-73.1072 115.517,-55.9938 63,-36 61.159,-35.2991 59.2818,-34.5436 57.3992,-33.7543"/>
<polygon fill="black" stroke="black" points="58.6444,-30.4779 48.0842,-29.6227 55.8063,-36.8767 58.6444,-30.4779"/>
</g>
<!-- LR 2 -->
<g id="node4" class="node"><title>LR 2</title>
<ellipse fill="gray" stroke="black" cx="99" cy="-18" rx="27" ry="18"/>
<text text-anchor="middle" x="99" y="-15.8" font-family="Times New Roman,serif" font-size="9.00">LR 2</text>
</g>
<!-- Horizontal&#45;&gt;LR 2 -->
<g id="edge3" class="edge"><title>Horizontal&#45;&gt;LR 2</title>
<path fill="none" stroke="black" d="M214.894,-75.3371C190.363,-63.4123 154.839,-46.1439 129.598,-33.874"/>
<polygon fill="black" stroke="black" points="130.996,-30.6619 120.472,-29.4378 127.935,-36.9575 130.996,-30.6619"/>
</g>
<!-- LR 3 -->
<g id="node5" class="node"><title>LR 3</title>
<ellipse fill="gray" stroke="black" cx="171" cy="-18" rx="27" ry="18"/>
<text text-anchor="middle" x="171" y="-15.8" font-family="Times New Roman,serif" font-size="9.00">LR 3</text>
</g>
<!-- Horizontal&#45;&gt;LR 3 -->
<g id="edge4" class="edge"><title>Horizontal&#45;&gt;LR 3</title>
<path fill="none" stroke="black" d="M225.202,-71.6966C215.512,-62.276 203.435,-50.5341 193.142,-40.5265"/>
<polygon fill="black" stroke="black" points="195.297,-37.7403 185.687,-33.279 190.417,-42.7593 195.297,-37.7403"/>
</g>
<!-- LR 4 -->
<g id="node6" class="node"><title>LR 4</title>
<ellipse fill="gray" stroke="black" cx="243" cy="-18" rx="27" ry="18"/>
<text text-anchor="middle" x="243" y="-15.8" font-family="Times New Roman,serif" font-size="9.00">LR 4</text>
</g>
<!-- Horizontal&#45;&gt;LR 4 -->
<g id="edge5" class="edge"><title>Horizontal&#45;&gt;LR 4</title>
<path fill="none" stroke="black" d="M243,-71.6966C243,-63.9827 243,-54.7125 243,-46.1124"/>
<polygon fill="black" stroke="black" points="246.5,-46.1043 243,-36.1043 239.5,-46.1044 246.5,-46.1043"/>
</g>
<!-- LR 5 -->
<g id="node7" class="node"><title>LR 5</title>
<ellipse fill="gray" stroke="black" cx="315" cy="-18" rx="27" ry="18"/>
<text text-anchor="middle" x="315" y="-15.8" font-family="Times New Roman,serif" font-size="9.00">LR 5</text>
</g>
<!-- Horizontal&#45;&gt;LR 5 -->
<g id="edge6" class="edge"><title>Horizontal&#45;&gt;LR 5</title>
<path fill="none" stroke="black" d="M260.798,-71.6966C270.488,-62.276 282.565,-50.5341 292.858,-40.5265"/>
<polygon fill="black" stroke="black" points="295.583,-42.7593 300.313,-33.279 290.703,-37.7403 295.583,-42.7593"/>
</g>
<!-- LR 6 -->
<g id="node8" class="node"><title>LR 6</title>
<ellipse fill="gray" stroke="black" cx="387" cy="-18" rx="27" ry="18"/>
<text text-anchor="middle" x="387" y="-15.8" font-family="Times New Roman,serif" font-size="9.00">LR 6</text>
</g>
<!-- Horizontal&#45;&gt;LR 6 -->
<g id="edge7" class="edge"><title>Horizontal&#45;&gt;LR 6</title>
<path fill="none" stroke="black" d="M271.106,-75.3371C295.637,-63.4123 331.161,-46.1439 356.402,-33.874"/>
<polygon fill="black" stroke="black" points="358.065,-36.9575 365.528,-29.4378 355.004,-30.6619 358.065,-36.9575"/>
</g>
<!-- UL 1 -->
<g id="node10" class="node"><title>UL 1</title>
<ellipse fill="gray" stroke="black" cx="459" cy="-18" rx="27" ry="18"/>
<text text-anchor="middle" x="459" y="-15.8" font-family="Times New Roman,serif" font-size="9.00">UL 1</text>
</g>
<!-- Upward&#45;&gt;UL 1 -->
<g id="edge9" class="edge"><title>Upward&#45;&gt;UL 1</title>
<path fill="none" stroke="black" d="M540.58,-71.8761C524.141,-61.2209 503.04,-47.5443 486.417,-36.7701"/>
<polygon fill="black" stroke="black" points="487.996,-33.6226 477.7,-31.1206 484.188,-39.4967 487.996,-33.6226"/>
</g>
<!-- UD 1 -->
<g id="node11" class="node"><title>UD 1</title>
<ellipse fill="gray" stroke="black" cx="531" cy="-18" rx="27" ry="18"/>
<text text-anchor="middle" x="531" y="-15.8" font-family="Times New Roman,serif" font-size="9.00">UD 1</text>
</g>
<!-- Upward&#45;&gt;UD 1 -->
<g id="edge10" class="edge"><title>Upward&#45;&gt;UD 1</title>
<path fill="none" stroke="black" d="M558.101,-71.6966C553.836,-63.4033 548.646,-53.3109 543.953,-44.1866"/>
<polygon fill="black" stroke="black" points="546.989,-42.4367 539.303,-35.1446 540.764,-45.6382 546.989,-42.4367"/>
</g>
<!-- DR 1 -->
<g id="node12" class="node"><title>DR 1</title>
<ellipse fill="gray" stroke="black" cx="603" cy="-18" rx="27" ry="18"/>
<text text-anchor="middle" x="603" y="-15.8" font-family="Times New Roman,serif" font-size="9.00">DR 1</text>
</g>
<!-- Upward&#45;&gt;DR 1 -->
<g id="edge11" class="edge"><title>Upward&#45;&gt;DR 1</title>
<path fill="none" stroke="black" d="M575.899,-71.6966C580.164,-63.4033 585.354,-53.3109 590.047,-44.1866"/>
<polygon fill="black" stroke="black" points="593.236,-45.6382 594.697,-35.1446 587.011,-42.4367 593.236,-45.6382"/>
</g>
<!-- LR 7 -->
<g id="node14" class="node"><title>LR 7</title>
<ellipse fill="gray" stroke="black" cx="675" cy="-18" rx="27" ry="18"/>
<text text-anchor="middle" x="675" y="-15.8" font-family="Times New Roman,serif" font-size="9.00">LR 7</text>
</g>
<!-- Horizontal*&#45;&gt;LR 7 -->
<g id="edge13" class="edge"><title>Horizontal*&#45;&gt;LR 7</title>
<path fill="none" stroke="black" d="M729.202,-71.6966C719.512,-62.276 707.435,-50.5341 697.142,-40.5265"/>
<polygon fill="black" stroke="black" points="699.297,-37.7403 689.687,-33.279 694.417,-42.7593 699.297,-37.7403"/>
</g>
<!-- LR 8 -->
<g id="node15" class="node"><title>LR 8</title>
<ellipse fill="gray" stroke="black" cx="747" cy="-18" rx="27" ry="18"/>
<text text-anchor="middle" x="747" y="-15.8" font-family="Times New Roman,serif" font-size="9.00">LR 8</text>
</g>
<!-- Horizontal*&#45;&gt;LR 8 -->
<g id="edge14" class="edge"><title>Horizontal*&#45;&gt;LR 8</title>
<path fill="none" stroke="black" d="M747,-71.6966C747,-63.9827 747,-54.7125 747,-46.1124"/>
<polygon fill="black" stroke="black" points="750.5,-46.1043 747,-36.1043 743.5,-46.1044 750.5,-46.1043"/>
</g>
<!-- LR 9 -->
<g id="node16" class="node"><title>LR 9</title>
<ellipse fill="gray" stroke="black" cx="819" cy="-18" rx="27" ry="18"/>
<text text-anchor="middle" x="819" y="-15.8" font-family="Times New Roman,serif" font-size="9.00">LR 9</text>
</g>
<!-- Horizontal*&#45;&gt;LR 9 -->
<g id="edge15" class="edge"><title>Horizontal*&#45;&gt;LR 9</title>
<path fill="none" stroke="black" d="M764.798,-71.6966C774.488,-62.276 786.565,-50.5341 796.858,-40.5265"/>
<polygon fill="black" stroke="black" points="799.583,-42.7593 804.313,-33.279 794.703,-37.7403 799.583,-42.7593"/>
</g>
<!-- UL 2 -->
<g id="node18" class="node"><title>UL 2</title>
<ellipse fill="gray" stroke="black" cx="891" cy="-18" rx="27" ry="18"/>
<text text-anchor="middle" x="891" y="-15.8" font-family="Times New Roman,serif" font-size="9.00">UL 2</text>
</g>
<!-- Upward*&#45;&gt;UL 2 -->
<g id="edge17" class="edge"><title>Upward*&#45;&gt;UL 2</title>
<path fill="none" stroke="black" d="M918.101,-71.6966C913.836,-63.4033 908.646,-53.3109 903.953,-44.1866"/>
<polygon fill="black" stroke="black" points="906.989,-42.4367 899.303,-35.1446 900.764,-45.6382 906.989,-42.4367"/>
</g>
<!-- UD 2 -->
<g id="node19" class="node"><title>UD 2</title>
<ellipse fill="gray" stroke="black" cx="963" cy="-18" rx="27" ry="18"/>
<text text-anchor="middle" x="963" y="-15.8" font-family="Times New Roman,serif" font-size="9.00">UD 2</text>
</g>
<!-- Upward*&#45;&gt;UD 2 -->
<g id="edge18" class="edge"><title>Upward*&#45;&gt;UD 2</title>
<path fill="none" stroke="black" d="M935.899,-71.6966C940.164,-63.4033 945.354,-53.3109 950.047,-44.1866"/>
<polygon fill="black" stroke="black" points="953.236,-45.6382 954.697,-35.1446 947.011,-42.4367 953.236,-45.6382"/>
</g>
<!-- DR 2 -->
<g id="node20" class="node"><title>DR 2</title>
<ellipse fill="gray" stroke="black" cx="1035" cy="-18" rx="27" ry="18"/>
<text text-anchor="middle" x="1035" y="-15.8" font-family="Times New Roman,serif" font-size="9.00">DR 2</text>
</g>
<!-- Upward*&#45;&gt;DR 2 -->
<g id="edge19" class="edge"><title>Upward*&#45;&gt;DR 2</title>
<path fill="none" stroke="black" d="M953.42,-71.8761C969.859,-61.2209 990.96,-47.5443 1007.58,-36.7701"/>
<polygon fill="black" stroke="black" points="1009.81,-39.4967 1016.3,-31.1206 1006,-33.6226 1009.81,-39.4967"/>
</g>
<!-- LR10 -->
<g id="node22" class="node"><title>LR10</title>
<ellipse fill="gray" stroke="black" cx="1107" cy="-18" rx="27" ry="18"/>
<text text-anchor="middle" x="1107" y="-15.8" font-family="Times New Roman,serif" font-size="9.00">LR10</text>
</g>
<!-- Horizontal**&#45;&gt;LR10 -->
<g id="edge21" class="edge"><title>Horizontal**&#45;&gt;LR10</title>
<path fill="none" stroke="black" d="M1134.1,-71.6966C1129.84,-63.4033 1124.65,-53.3109 1119.95,-44.1866"/>
<polygon fill="black" stroke="black" points="1122.99,-42.4367 1115.3,-35.1446 1116.76,-45.6382 1122.99,-42.4367"/>
</g>
<!-- LR11 -->
<g id="node23" class="node"><title>LR11</title>
<ellipse fill="gray" stroke="black" cx="1179" cy="-18" rx="27" ry="18"/>
<text text-anchor="middle" x="1179" y="-15.8" font-family="Times New Roman,serif" font-size="9.00">LR11</text>
</g>
<!-- Horizontal**&#45;&gt;LR11 -->
<g id="edge22" class="edge"><title>Horizontal**&#45;&gt;LR11</title>
<path fill="none" stroke="black" d="M1151.9,-71.6966C1156.16,-63.4033 1161.35,-53.3109 1166.05,-44.1866"/>
<polygon fill="black" stroke="black" points="1169.24,-45.6382 1170.7,-35.1446 1163.01,-42.4367 1169.24,-45.6382"/>
</g>
<!-- LR12 -->
<g id="node24" class="node"><title>LR12</title>
<ellipse fill="gray" stroke="black" cx="1251" cy="-18" rx="27" ry="18"/>
<text text-anchor="middle" x="1251" y="-15.8" font-family="Times New Roman,serif" font-size="9.00">LR12</text>
</g>
<!-- Horizontal**&#45;&gt;LR12 -->
<g id="edge23" class="edge"><title>Horizontal**&#45;&gt;LR12</title>
<path fill="none" stroke="black" d="M1169.42,-71.8761C1185.86,-61.2209 1206.96,-47.5443 1223.58,-36.7701"/>
<polygon fill="black" stroke="black" points="1225.81,-39.4967 1232.3,-31.1206 1222,-33.6226 1225.81,-39.4967"/>
</g>
</g>
</svg>
