<?xml version="1.0" encoding="UTF-8" standalone="no"?>
<!DOCTYPE svg PUBLIC "-//W3C//DTD SVG 1.1//EN"
 "http://www.w3.org/Graphics/SVG/1.1/DTD/svg11.dtd">
<!-- Generated by graphviz version 2.38.0 (20140413.2041)
 -->
<!-- Title: pastafarianism Pages: 1 -->
<svg width="547pt" height="260pt"
 viewBox="0.00 0.00 546.63 260.00" xmlns="http://www.w3.org/2000/svg" xmlns:xlink="http://www.w3.org/1999/xlink">
<g id="graph0" class="graph" transform="scale(1 1) rotate(0) translate(4 256)">
<title>pastafarianism</title>
<polygon fill="white" stroke="none" points="-4,4 -4,-256 542.633,-256 542.633,4 -4,4"/>
<!-- Paths Stairs and Enemies -->
<g id="node1" class="node"><title>Paths Stairs and Enemies</title>
<polygon fill="orange" stroke="black" points="237.873,-252 130.873,-252 130.873,-216 237.873,-216 237.873,-252"/>
<text text-anchor="middle" x="184.373" y="-231.8" font-family="Times New Roman,serif" font-size="9.00">Paths Stairs and Enemies</text>
</g>
<!-- Multiple Paths -->
<g id="node2" class="node"><title>Multiple Paths</title>
<polygon fill="orange" stroke="black" points="173.873,-180 102.873,-180 102.873,-144 173.873,-144 173.873,-180"/>
<text text-anchor="middle" x="138.373" y="-159.8" font-family="Times New Roman,serif" font-size="9.00">Multiple Paths</text>
</g>
<!-- Paths Stairs and Enemies&#45;&gt;Multiple Paths -->
<g id="edge1" class="edge"><title>Paths Stairs and Enemies&#45;&gt;Multiple Paths</title>
<path fill="none" stroke="black" d="M173.002,-215.697C167.655,-207.559 161.169,-197.689 155.262,-188.701"/>
<polygon fill="black" stroke="black" points="158.03,-186.539 149.613,-180.104 152.18,-190.384 158.03,-186.539"/>
</g>
<!-- Stairs and Pipes -->
<g id="node5" class="node"><title>Stairs and Pipes</title>
<polygon fill="orange" stroke="black" points="268.373,-180 194.373,-180 194.373,-144 268.373,-144 268.373,-180"/>
<text text-anchor="middle" x="231.373" y="-159.8" font-family="Times New Roman,serif" font-size="9.00">Stairs and Pipes</text>
</g>
<!-- Paths Stairs and Enemies&#45;&gt;Stairs and Pipes -->
<g id="edge4" class="edge"><title>Paths Stairs and Enemies&#45;&gt;Stairs and Pipes</title>
<path fill="none" stroke="black" d="M195.991,-215.697C201.512,-207.474 208.22,-197.483 214.305,-188.421"/>
<polygon fill="black" stroke="black" points="217.22,-190.358 219.889,-180.104 211.409,-186.456 217.22,-190.358"/>
</g>
<!-- Risk Reward -->
<g id="node3" class="node"><title>Risk Reward</title>
<ellipse fill="gray" stroke="black" cx="36.3731" cy="-90" rx="36.2466" ry="18"/>
<text text-anchor="middle" x="36.3731" y="-87.8" font-family="Times New Roman,serif" font-size="9.00">Risk Reward</text>
</g>
<!-- Multiple Paths&#45;&gt;Risk Reward -->
<g id="edge2" class="edge"><title>Multiple Paths&#45;&gt;Risk Reward</title>
<path fill="none" stroke="black" d="M113.421,-143.876C98.9262,-133.929 80.594,-121.348 65.4483,-110.954"/>
<polygon fill="black" stroke="black" points="67.1776,-107.895 56.952,-105.123 63.2166,-113.667 67.1776,-107.895"/>
</g>
<!-- Enemy with Paths -->
<g id="node4" class="node"><title>Enemy with Paths</title>
<ellipse fill="gray" stroke="black" cx="138.373" cy="-90" rx="47.8403" ry="18"/>
<text text-anchor="middle" x="138.373" y="-87.8" font-family="Times New Roman,serif" font-size="9.00">Enemy with Paths</text>
</g>
<!-- Multiple Paths&#45;&gt;Enemy with Paths -->
<g id="edge3" class="edge"><title>Multiple Paths&#45;&gt;Enemy with Paths</title>
<path fill="none" stroke="black" d="M138.373,-143.697C138.373,-135.983 138.373,-126.712 138.373,-118.112"/>
<polygon fill="black" stroke="black" points="141.873,-118.104 138.373,-108.104 134.873,-118.104 141.873,-118.104"/>
</g>
<!-- Stairs -->
<g id="node6" class="node"><title>Stairs</title>
<polygon fill="orange" stroke="black" points="258.373,-108 204.373,-108 204.373,-72 258.373,-72 258.373,-108"/>
<text text-anchor="middle" x="231.373" y="-87.8" font-family="Times New Roman,serif" font-size="9.00">Stairs</text>
</g>
<!-- Stairs and Pipes&#45;&gt;Stairs -->
<g id="edge5" class="edge"><title>Stairs and Pipes&#45;&gt;Stairs</title>
<path fill="none" stroke="black" d="M231.373,-143.697C231.373,-135.983 231.373,-126.712 231.373,-118.112"/>
<polygon fill="black" stroke="black" points="234.873,-118.104 231.373,-108.104 227.873,-118.104 234.873,-118.104"/>
</g>
<!-- Pipes -->
<g id="node9" class="node"><title>Pipes</title>
<polygon fill="orange" stroke="black" points="388.373,-108 334.373,-108 334.373,-72 388.373,-72 388.373,-108"/>
<text text-anchor="middle" x="361.373" y="-87.8" font-family="Times New Roman,serif" font-size="9.00">Pipes</text>
</g>
<!-- Stairs and Pipes&#45;&gt;Pipes -->
<g id="edge8" class="edge"><title>Stairs and Pipes&#45;&gt;Pipes</title>
<path fill="none" stroke="black" d="M263.175,-143.876C281.993,-133.743 305.887,-120.877 325.393,-110.374"/>
<polygon fill="black" stroke="black" points="327.147,-113.404 334.293,-105.582 323.829,-107.241 327.147,-113.404"/>
</g>
<!-- Stair Up -->
<g id="node7" class="node"><title>Stair Up</title>
<ellipse fill="gray" stroke="black" cx="152.373" cy="-18" rx="27.2716" ry="18"/>
<text text-anchor="middle" x="152.373" y="-15.8" font-family="Times New Roman,serif" font-size="9.00">Stair Up</text>
</g>
<!-- Stairs&#45;&gt;Stair Up -->
<g id="edge6" class="edge"><title>Stairs&#45;&gt;Stair Up</title>
<path fill="none" stroke="black" d="M211.845,-71.6966C200.856,-61.9597 187.069,-49.743 175.536,-39.5245"/>
<polygon fill="black" stroke="black" points="177.781,-36.8368 167.975,-32.8245 173.138,-42.076 177.781,-36.8368"/>
</g>
<!-- Stair Valley -->
<g id="node8" class="node"><title>Stair Valley</title>
<ellipse fill="gray" stroke="black" cx="231.373" cy="-18" rx="34.1275" ry="18"/>
<text text-anchor="middle" x="231.373" y="-15.8" font-family="Times New Roman,serif" font-size="9.00">Stair Valley</text>
</g>
<!-- Stairs&#45;&gt;Stair Valley -->
<g id="edge7" class="edge"><title>Stairs&#45;&gt;Stair Valley</title>
<path fill="none" stroke="black" d="M231.373,-71.6966C231.373,-63.9827 231.373,-54.7125 231.373,-46.1124"/>
<polygon fill="black" stroke="black" points="234.873,-46.1043 231.373,-36.1043 227.873,-46.1044 234.873,-46.1043"/>
</g>
<!-- Pipe Valley -->
<g id="node10" class="node"><title>Pipe Valley</title>
<ellipse fill="gray" stroke="black" cx="317.373" cy="-18" rx="34.1275" ry="18"/>
<text text-anchor="middle" x="317.373" y="-15.8" font-family="Times New Roman,serif" font-size="9.00">Pipe Valley</text>
</g>
<!-- Pipes&#45;&gt;Pipe Valley -->
<g id="edge9" class="edge"><title>Pipes&#45;&gt;Pipe Valley</title>
<path fill="none" stroke="black" d="M350.497,-71.6966C345.305,-63.4374 338.992,-53.394 333.276,-44.2994"/>
<polygon fill="black" stroke="black" points="336.106,-42.2261 327.821,-35.6223 330.18,-45.9513 336.106,-42.2261"/>
</g>
<!-- Pipe Valley* -->
<g id="node11" class="node"><title>Pipe Valley*</title>
<ellipse fill="gray" stroke="black" cx="405.373" cy="-18" rx="36.2466" ry="18"/>
<text text-anchor="middle" x="405.373" y="-15.8" font-family="Times New Roman,serif" font-size="9.00">Pipe Valley*</text>
</g>
<!-- Pipes&#45;&gt;Pipe Valley* -->
<g id="edge10" class="edge"><title>Pipes&#45;&gt;Pipe Valley*</title>
<path fill="none" stroke="black" d="M372.249,-71.6966C377.441,-63.4374 383.754,-53.394 389.471,-44.2994"/>
<polygon fill="black" stroke="black" points="392.566,-45.9513 394.925,-35.6223 386.64,-42.2261 392.566,-45.9513"/>
</g>
<!-- Pipe Valley** -->
<g id="node12" class="node"><title>Pipe Valley**</title>
<ellipse fill="gray" stroke="black" cx="499.373" cy="-18" rx="39.0211" ry="18"/>
<text text-anchor="middle" x="499.373" y="-15.8" font-family="Times New Roman,serif" font-size="9.00">Pipe Valley**</text>
</g>
<!-- Pipes&#45;&gt;Pipe Valley** -->
<g id="edge11" class="edge"><title>Pipes&#45;&gt;Pipe Valley**</title>
<path fill="none" stroke="black" d="M388.637,-75.1703C410.55,-64.055 441.459,-48.3768 465.055,-36.4079"/>
<polygon fill="black" stroke="black" points="466.692,-39.5021 474.027,-31.8569 463.525,-33.2593 466.692,-39.5021"/>
</g>
</g>
</svg>
