<?xml version="1.0" encoding="UTF-8" standalone="no"?>
<!DOCTYPE svg PUBLIC "-//W3C//DTD SVG 1.1//EN"
 "http://www.w3.org/Graphics/SVG/1.1/DTD/svg11.dtd">
<!-- Generated by graphviz version 2.38.0 (20140413.2041)
 -->
<!-- Title: pastafarianism Pages: 1 -->
<svg width="263pt" height="116pt"
 viewBox="0.00 0.00 263.32 116.00" xmlns="http://www.w3.org/2000/svg" xmlns:xlink="http://www.w3.org/1999/xlink">
<g id="graph0" class="graph" transform="scale(1 1) rotate(0) translate(4 112)">
<title>pastafarianism</title>
<polygon fill="white" stroke="none" points="-4,4 -4,-112 259.323,-112 259.323,4 -4,4"/>
<!-- Pipes -->
<g id="node1" class="node"><title>Pipes</title>
<polygon fill="orange" stroke="black" points="149.064,-108 95.0637,-108 95.0637,-72 149.064,-72 149.064,-108"/>
<text text-anchor="middle" x="122.064" y="-87.8" font-family="Times New Roman,serif" font-size="9.00">Pipes</text>
</g>
<!-- Pipe Valley -->
<g id="node2" class="node"><title>Pipe Valley</title>
<ellipse fill="gray" stroke="black" cx="34.0637" cy="-18" rx="34.1275" ry="18"/>
<text text-anchor="middle" x="34.0637" y="-15.8" font-family="Times New Roman,serif" font-size="9.00">Pipe Valley</text>
</g>
<!-- Pipes&#45;&gt;Pipe Valley -->
<g id="edge1" class="edge"><title>Pipes&#45;&gt;Pipe Valley</title>
<path fill="none" stroke="black" d="M100.311,-71.6966C88.2029,-62.0653 73.0449,-50.0078 60.285,-39.8578"/>
<polygon fill="black" stroke="black" points="62.3072,-36.9942 52.3023,-33.508 57.9495,-42.4724 62.3072,-36.9942"/>
</g>
<!-- Pipe Valley* -->
<g id="node3" class="node"><title>Pipe Valley*</title>
<ellipse fill="gray" stroke="black" cx="122.064" cy="-18" rx="36.2466" ry="18"/>
<text text-anchor="middle" x="122.064" y="-15.8" font-family="Times New Roman,serif" font-size="9.00">Pipe Valley*</text>
</g>
<!-- Pipes&#45;&gt;Pipe Valley* -->
<g id="edge2" class="edge"><title>Pipes&#45;&gt;Pipe Valley*</title>
<path fill="none" stroke="black" d="M122.064,-71.6966C122.064,-63.9827 122.064,-54.7125 122.064,-46.1124"/>
<polygon fill="black" stroke="black" points="125.564,-46.1043 122.064,-36.1043 118.564,-46.1044 125.564,-46.1043"/>
</g>
<!-- Pipe Valley** -->
<g id="node4" class="node"><title>Pipe Valley**</title>
<ellipse fill="gray" stroke="black" cx="216.064" cy="-18" rx="39.0211" ry="18"/>
<text text-anchor="middle" x="216.064" y="-15.8" font-family="Times New Roman,serif" font-size="9.00">Pipe Valley**</text>
</g>
<!-- Pipes&#45;&gt;Pipe Valley** -->
<g id="edge3" class="edge"><title>Pipes&#45;&gt;Pipe Valley**</title>
<path fill="none" stroke="black" d="M145.3,-71.6966C158.266,-62.0406 174.508,-49.946 188.159,-39.7799"/>
<polygon fill="black" stroke="black" points="190.342,-42.5182 196.272,-33.7383 186.161,-36.9039 190.342,-42.5182"/>
</g>
</g>
</svg>
