<?xml version="1.0" encoding="UTF-8" standalone="no"?>
<!DOCTYPE svg PUBLIC "-//W3C//DTD SVG 1.1//EN"
 "http://www.w3.org/Graphics/SVG/1.1/DTD/svg11.dtd">
<!-- Generated by graphviz version 2.38.0 (20140413.2041)
 -->
<!-- Title: pastafarianism Pages: 1 -->
<svg width="148pt" height="116pt"
 viewBox="0.00 0.00 148.20 116.00" xmlns="http://www.w3.org/2000/svg" xmlns:xlink="http://www.w3.org/1999/xlink">
<g id="graph0" class="graph" transform="scale(1 1) rotate(0) translate(4 112)">
<title>pastafarianism</title>
<polygon fill="white" stroke="none" points="-4,4 -4,-112 144.199,-112 144.199,4 -4,4"/>
<!-- Stairs -->
<g id="node1" class="node"><title>Stairs</title>
<polygon fill="orange" stroke="black" points="93.1355,-108 39.1355,-108 39.1355,-72 93.1355,-72 93.1355,-108"/>
<text text-anchor="middle" x="66.1355" y="-87.8" font-family="Times New Roman,serif" font-size="9.00">Stairs</text>
</g>
<!-- Stair Up -->
<g id="node2" class="node"><title>Stair Up</title>
<ellipse fill="gray" stroke="black" cx="27.1355" cy="-18" rx="27.2716" ry="18"/>
<text text-anchor="middle" x="27.1355" y="-15.8" font-family="Times New Roman,serif" font-size="9.00">Stair Up</text>
</g>
<!-- Stairs&#45;&gt;Stair Up -->
<g id="edge1" class="edge"><title>Stairs&#45;&gt;Stair Up</title>
<path fill="none" stroke="black" d="M56.495,-71.6966C51.8258,-63.316 46.1331,-53.0983 41.0077,-43.8988"/>
<polygon fill="black" stroke="black" points="44.0549,-42.1768 36.1303,-35.1446 37.9399,-45.5837 44.0549,-42.1768"/>
</g>
<!-- Stair Valley -->
<g id="node3" class="node"><title>Stair Valley</title>
<ellipse fill="gray" stroke="black" cx="106.135" cy="-18" rx="34.1275" ry="18"/>
<text text-anchor="middle" x="106.135" y="-15.8" font-family="Times New Roman,serif" font-size="9.00">Stair Valley</text>
</g>
<!-- Stairs&#45;&gt;Stair Valley -->
<g id="edge2" class="edge"><title>Stairs&#45;&gt;Stair Valley</title>
<path fill="none" stroke="black" d="M76.0231,-71.6966C80.6935,-63.5234 86.3623,-53.6031 91.5161,-44.5839"/>
<polygon fill="black" stroke="black" points="94.7144,-46.0412 96.637,-35.6223 88.6367,-42.5682 94.7144,-46.0412"/>
</g>
</g>
</svg>
