<?xml version="1.0" encoding="UTF-8" standalone="no"?>
<!DOCTYPE svg PUBLIC "-//W3C//DTD SVG 1.1//EN"
 "http://www.w3.org/Graphics/SVG/1.1/DTD/svg11.dtd">
<!-- Generated by graphviz version 2.38.0 (20140413.2041)
 -->
<!-- Title: pastafarianism Pages: 1 -->
<svg width="421pt" height="188pt"
 viewBox="0.00 0.00 421.40 188.00" xmlns="http://www.w3.org/2000/svg" xmlns:xlink="http://www.w3.org/1999/xlink">
<g id="graph0" class="graph" transform="scale(1 1) rotate(0) translate(4 184)">
<title>pastafarianism</title>
<polygon fill="white" stroke="none" points="-4,4 -4,-184 417.395,-184 417.395,4 -4,4"/>
<!-- Stairs and Pipes -->
<g id="node1" class="node"><title>Stairs and Pipes</title>
<polygon fill="orange" stroke="black" points="186.135,-180 112.135,-180 112.135,-144 186.135,-144 186.135,-180"/>
<text text-anchor="middle" x="149.135" y="-159.8" font-family="Times New Roman,serif" font-size="9.00">Stairs and Pipes</text>
</g>
<!-- Stairs -->
<g id="node2" class="node"><title>Stairs</title>
<polygon fill="orange" stroke="black" points="133.135,-108 79.1355,-108 79.1355,-72 133.135,-72 133.135,-108"/>
<text text-anchor="middle" x="106.135" y="-87.8" font-family="Times New Roman,serif" font-size="9.00">Stairs</text>
</g>
<!-- Stairs and Pipes&#45;&gt;Stairs -->
<g id="edge1" class="edge"><title>Stairs and Pipes&#45;&gt;Stairs</title>
<path fill="none" stroke="black" d="M138.506,-143.697C133.507,-135.559 127.444,-125.689 121.923,-116.701"/>
<polygon fill="black" stroke="black" points="124.859,-114.793 116.642,-108.104 118.894,-118.457 124.859,-114.793"/>
</g>
<!-- Pipes -->
<g id="node5" class="node"><title>Pipes</title>
<polygon fill="orange" stroke="black" points="263.135,-108 209.135,-108 209.135,-72 263.135,-72 263.135,-108"/>
<text text-anchor="middle" x="236.135" y="-87.8" font-family="Times New Roman,serif" font-size="9.00">Pipes</text>
</g>
<!-- Stairs and Pipes&#45;&gt;Pipes -->
<g id="edge4" class="edge"><title>Stairs and Pipes&#45;&gt;Pipes</title>
<path fill="none" stroke="black" d="M170.641,-143.697C181.598,-134.881 195.081,-124.032 206.96,-114.474"/>
<polygon fill="black" stroke="black" points="209.28,-117.1 214.877,-108.104 204.892,-111.646 209.28,-117.1"/>
</g>
<!-- Stair Up -->
<g id="node3" class="node"><title>Stair Up</title>
<ellipse fill="gray" stroke="black" cx="27.1355" cy="-18" rx="27.2716" ry="18"/>
<text text-anchor="middle" x="27.1355" y="-15.8" font-family="Times New Roman,serif" font-size="9.00">Stair Up</text>
</g>
<!-- Stairs&#45;&gt;Stair Up -->
<g id="edge2" class="edge"><title>Stairs&#45;&gt;Stair Up</title>
<path fill="none" stroke="black" d="M86.6074,-71.6966C75.6185,-61.9597 61.8311,-49.743 50.2989,-39.5245"/>
<polygon fill="black" stroke="black" points="52.5432,-36.8368 42.7374,-32.8245 47.9008,-42.076 52.5432,-36.8368"/>
</g>
<!-- Stair Valley -->
<g id="node4" class="node"><title>Stair Valley</title>
<ellipse fill="gray" stroke="black" cx="106.135" cy="-18" rx="34.1275" ry="18"/>
<text text-anchor="middle" x="106.135" y="-15.8" font-family="Times New Roman,serif" font-size="9.00">Stair Valley</text>
</g>
<!-- Stairs&#45;&gt;Stair Valley -->
<g id="edge3" class="edge"><title>Stairs&#45;&gt;Stair Valley</title>
<path fill="none" stroke="black" d="M106.135,-71.6966C106.135,-63.9827 106.135,-54.7125 106.135,-46.1124"/>
<polygon fill="black" stroke="black" points="109.636,-46.1043 106.135,-36.1043 102.636,-46.1044 109.636,-46.1043"/>
</g>
<!-- Pipe Valley -->
<g id="node6" class="node"><title>Pipe Valley</title>
<ellipse fill="gray" stroke="black" cx="192.135" cy="-18" rx="34.1275" ry="18"/>
<text text-anchor="middle" x="192.135" y="-15.8" font-family="Times New Roman,serif" font-size="9.00">Pipe Valley</text>
</g>
<!-- Pipes&#45;&gt;Pipe Valley -->
<g id="edge5" class="edge"><title>Pipes&#45;&gt;Pipe Valley</title>
<path fill="none" stroke="black" d="M225.259,-71.6966C220.068,-63.4374 213.755,-53.394 208.038,-44.2994"/>
<polygon fill="black" stroke="black" points="210.869,-42.2261 202.584,-35.6223 204.942,-45.9513 210.869,-42.2261"/>
</g>
<!-- Pipe Valley* -->
<g id="node7" class="node"><title>Pipe Valley*</title>
<ellipse fill="gray" stroke="black" cx="280.135" cy="-18" rx="36.2466" ry="18"/>
<text text-anchor="middle" x="280.135" y="-15.8" font-family="Times New Roman,serif" font-size="9.00">Pipe Valley*</text>
</g>
<!-- Pipes&#45;&gt;Pipe Valley* -->
<g id="edge6" class="edge"><title>Pipes&#45;&gt;Pipe Valley*</title>
<path fill="none" stroke="black" d="M247.012,-71.6966C252.203,-63.4374 258.516,-53.394 264.233,-44.2994"/>
<polygon fill="black" stroke="black" points="267.329,-45.9513 269.687,-35.6223 261.402,-42.2261 267.329,-45.9513"/>
</g>
<!-- Pipe Valley** -->
<g id="node8" class="node"><title>Pipe Valley**</title>
<ellipse fill="gray" stroke="black" cx="374.135" cy="-18" rx="39.0211" ry="18"/>
<text text-anchor="middle" x="374.135" y="-15.8" font-family="Times New Roman,serif" font-size="9.00">Pipe Valley**</text>
</g>
<!-- Pipes&#45;&gt;Pipe Valley** -->
<g id="edge7" class="edge"><title>Pipes&#45;&gt;Pipe Valley**</title>
<path fill="none" stroke="black" d="M263.4,-75.1703C285.313,-64.055 316.221,-48.3768 339.817,-36.4079"/>
<polygon fill="black" stroke="black" points="341.454,-39.5021 348.789,-31.8569 338.287,-33.2593 341.454,-39.5021"/>
</g>
</g>
</svg>
